<?xml version="1.0" encoding="UTF-8"?>
<svg version="1.1" xmlns="http://www.w3.org/2000/svg" width="500" height="499">
<path d="M0 0 C1.56083204 1.29198513 3.14104281 2.5604463 4.72167969 3.828125 C18.72080832 15.18326561 31.69842246 28.08513425 42.35546875 42.63916016 C43.61627206 44.34405408 44.91377652 46.01463971 46.22167969 47.68359375 C68.40626251 76.39186581 82.67055396 110.03559182 90.10449219 145.390625 C90.45084717 147.02596191 90.45084717 147.02596191 90.80419922 148.69433594 C94.22000736 166.16442066 95.01890291 183.88151764 94.97949219 201.640625 C94.97867645 203.0435379 94.97867645 203.0435379 94.97784424 204.47479248 C94.93882171 219.13633649 93.93742429 233.01311775 90.60449219 247.328125 C90.17419535 249.36548265 89.74588018 251.40325964 89.31933594 253.44140625 C81.56822714 289.16511039 66.49074773 323.62378296 42.90332031 351.76904297 C41.65136016 353.27186581 40.43187459 354.80156116 39.21386719 356.33203125 C25.66987506 373.00647439 10.14357914 387.93947785 -7.39550781 400.328125 C-8.48769134 401.12618597 -9.5788969 401.9255877 -10.66894531 402.7265625 C-41.19119274 424.63799957 -75.59478152 437.479825 -112.39550781 444.328125 C-113.24494461 444.49470612 -114.09438141 444.66128723 -114.96955872 444.83291626 C-122.69479103 446.2552372 -130.19466296 446.67679941 -138.04003906 446.734375 C-139.31617569 446.74826767 -140.59231232 446.76216034 -141.90711975 446.776474 C-146.00743136 446.81494963 -150.10753615 446.82456708 -154.20800781 446.828125 C-154.9047184 446.82945057 -155.60142899 446.83077614 -156.31925201 446.83214188 C-177.30795549 446.86278458 -197.08244914 446.13505899 -217.39550781 440.328125 C-219.55881875 439.76662765 -221.72288508 439.20803263 -223.88769531 438.65234375 C-236.51955681 435.29460559 -248.5551823 430.84701147 -260.39550781 425.328125 C-261.43046387 424.84690186 -261.43046387 424.84690186 -262.48632812 424.35595703 C-299.37155023 406.98938546 -333.00714412 380.43375579 -356.94775391 347.32275391 C-358.30152827 345.4576044 -359.68099756 343.61534746 -361.07128906 341.77734375 C-367.7837627 332.80118179 -373.22984668 323.2619335 -378.39550781 313.328125 C-378.80800781 312.54646973 -379.22050781 311.76481445 -379.64550781 310.95947266 C-395.08819651 281.39516903 -405.51855969 246.30306402 -405.56347656 212.74609375 C-405.56680496 211.85183182 -405.57013336 210.95756989 -405.57356262 210.03620911 C-405.57859699 208.14955148 -405.58097203 206.26288504 -405.58081055 204.3762207 C-405.5829728 201.56120107 -405.60109893 198.74658992 -405.62011719 195.93164062 C-405.67288984 179.39920128 -404.56082213 163.09779349 -401.14550781 146.890625 C-400.92934814 145.84624268 -400.71318848 144.80186035 -400.49047852 143.72583008 C-392.39680944 105.69279905 -376.35833342 70.29058235 -351.39550781 40.328125 C-350.94272461 39.77382812 -350.48994141 39.21953125 -350.0234375 38.6484375 C-338.55549145 24.61858947 -325.83894701 11.30991348 -311.39550781 0.328125 C-310.22052347 -0.59831799 -309.0460816 -1.52544924 -307.87207031 -2.453125 C-275.90965214 -27.40367069 -239.05044344 -42.24673671 -199.39550781 -49.671875 C-198.45433105 -49.85121582 -197.5131543 -50.03055664 -196.54345703 -50.21533203 C-128.81593996 -62.48401519 -52.99804335 -43.99122024 0 0 Z " fill="#BD1E2D" transform="translate(405.3955078125,52.671875)"/>
<path d="M0 0 C0.33 0 0.66 0 1 0 C3.64783405 50.01464324 -18.88343093 106.47498909 -50.70117188 144.44091797 C-51.95313203 145.94374081 -53.1726176 147.47343616 -54.390625 149.00390625 C-67.93461713 165.67834939 -83.46091305 180.61135285 -101 193 C-102.09218352 193.79806097 -103.18338909 194.5974627 -104.2734375 195.3984375 C-134.79568493 217.30987457 -169.19927371 230.1517 -206 237 C-206.8494368 237.16658112 -207.6988736 237.33316223 -208.5740509 237.50479126 C-216.29928322 238.9271122 -223.79915515 239.34867441 -231.64453125 239.40625 C-232.92066788 239.42014267 -234.1968045 239.43403534 -235.51161194 239.448349 C-239.61192355 239.48682463 -243.71202834 239.49644208 -247.8125 239.5 C-248.50921059 239.50132557 -249.20592117 239.50265114 -249.9237442 239.50401688 C-270.91244767 239.53465958 -290.68694133 238.80693399 -311 233 C-313.16331094 232.43850265 -315.32737727 231.87990763 -317.4921875 231.32421875 C-330.12404899 227.96648059 -342.15967449 223.51888647 -354 218 C-354.6899707 217.67918457 -355.37994141 217.35836914 -356.09082031 217.02783203 C-392.97604241 199.66126046 -426.61163631 173.10563079 -450.55224609 139.99462891 C-451.90602046 138.1294794 -453.28548975 136.28722246 -454.67578125 134.44921875 C-461.38825488 125.47305679 -466.83433887 115.9338085 -472 106 C-472.4125 105.21834473 -472.825 104.43668945 -473.25 103.63134766 C-488.61775024 74.21051019 -499 39.36255409 -499 6 C-453.46 6 -407.92 6 -361 6 C-359.86043151 9.98848971 -358.76415289 13.92639532 -357.75 17.9375 C-349.58980374 47.36244413 -331.56311967 72.6673066 -304.8125 88.125 C-297.83801448 91.80318689 -290.42635653 94.39646212 -283 97 C-282.0409375 97.35320312 -281.081875 97.70640625 -280.09375 98.0703125 C-264.20930739 102.84366773 -245.52693542 104.04289036 -229.3125 100.4453125 C-225.83238609 99.77515543 -222.53295678 99.86668088 -219 100 C-219 99.34 -219 98.68 -219 98 C-217.6875 97.5625 -216.375 97.125 -215.0625 96.6875 C-214.23105469 96.40519531 -213.39960938 96.12289062 -212.54296875 95.83203125 C-211.016019 95.33243018 -209.47857423 94.86154231 -207.92578125 94.44921875 C-184.16079874 87.79502365 -163.61568325 66.64427879 -151.79785156 45.88867188 C-144.72971871 32.84824072 -140.96007644 20.80038219 -138 6 C-92.46 6 -46.92 6 0 6 C0 4.02 0 2.04 0 0 Z " fill="#EEF0EF" transform="translate(499,260)"/>
<path d="M0 0 C0.82371094 0.32097656 1.64742188 0.64195312 2.49609375 0.97265625 C12.90411667 5.24303071 23.62828417 15.54626351 30.6640625 24.2109375 C32.88133612 27.12435147 32.88133612 27.12435147 36 29 C37.05104383 30.63495707 38.04570968 32.3067464 39 34 C40.12070149 35.75275588 41.24587153 37.50266091 42.375 39.25 C43.58499724 41.16561668 44.79340744 43.08223699 46 45 C46.70576172 46.0828125 46.70576172 46.0828125 47.42578125 47.1875 C51.04100156 53.09720999 52.59532893 59.26647401 54.203125 65.9375 C54.68641706 68.8551694 54.68641706 68.8551694 56 70 C56.66 73.63 57.32 77.26 58 81 C102.55 81 147.1 81 193 81 C193.66 79.68 194.32 78.36 195 77 C195.8810692 80.78719763 196.12870509 84.29886869 196.1328125 88.18359375 C196.13410156 89.35857422 196.13539063 90.53355469 196.13671875 91.74414062 C196.13285156 92.96294922 196.12898438 94.18175781 196.125 95.4375 C196.12886719 96.65244141 196.13273437 97.86738281 196.13671875 99.11914062 C196.13478516 100.88354492 196.13478516 100.88354492 196.1328125 102.68359375 C196.13168457 103.75150146 196.13055664 104.81940918 196.12939453 105.91967773 C196 109 196 109 195 115 C149.46 115 103.92 115 57 115 C57 117.31 57 119.62 57 122 C56.33353093 124.67953341 55.62398985 127.20661614 54.75 129.8125 C54.51966064 130.51681152 54.28932129 131.22112305 54.05200195 131.94677734 C53.38226047 133.96969841 52.69495721 135.98562365 52 138 C51.68933594 138.91394531 51.37867188 139.82789063 51.05859375 140.76953125 C40.71675828 168.73422537 18.27973217 189.92040853 -8 203 C-13.37522106 205.18214249 -18.16874838 207 -24 207 C-24 207.66 -24 208.32 -24 209 C-54.14706 214.67156336 -84.02935168 212.8326662 -111 197 C-111.94488281 196.46117187 -112.88976562 195.92234375 -113.86328125 195.3671875 C-130.45500784 185.25867146 -143.05232431 170.47774501 -153 154 C-153.51691406 153.195625 -154.03382813 152.39125 -154.56640625 151.5625 C-156.39651651 148.29124025 -157.71095786 144.88389697 -159 141.375 C-159.26127686 140.67004395 -159.52255371 139.96508789 -159.79174805 139.23876953 C-162.58242348 131.58857473 -164.66009377 124.03943736 -166 116 C-234.31 115.505 -234.31 115.505 -304 115 C-304 81 -304 81 -302 77 C-302 78.65 -302 80.3 -302 82 C-256.79 82 -211.58 82 -165 82 C-164.67 78.7 -164.34 75.4 -164 72 C-162.5625 67.375 -162.5625 67.375 -161.81640625 65.3984375 C-160.8861568 62.80250473 -160.8861568 62.80250473 -160.14453125 59.234375 C-159.05684985 54.78528695 -157.2252604 50.92717526 -155.125 46.875 C-154.61646484 45.85986328 -154.61646484 45.85986328 -154.09765625 44.82421875 C-148.45192931 33.72596466 -148.45192931 33.72596466 -145 32 C-144.566875 31.2575 -144.13375 30.515 -143.6875 29.75 C-141.79011961 26.65797269 -139.62353542 24.49860516 -137 22 C-135.6696875 20.6078125 -135.6696875 20.6078125 -134.3125 19.1875 C-132 17 -132 17 -130 17 C-130 16.01 -130 15.02 -130 14 C-128.36935236 12.94228261 -126.69719127 11.94726954 -125 11 C-124.443125 10.443125 -123.88625 9.88625 -123.3125 9.3125 C-122.879375 8.879375 -122.44625 8.44625 -122 8 C-121.34 8 -120.68 8 -120 8 C-120 7.34 -120 6.68 -120 6 C-118.02 5.505 -118.02 5.505 -116 5 C-116 4.34 -116 3.68 -116 3 C-114.04414675 1.99515796 -112.08523763 0.99626195 -110.125 0 C-108.48917969 -0.8353125 -108.48917969 -0.8353125 -106.8203125 -1.6875 C-104 -3 -104 -3 -102 -3 C-102 -3.66 -102 -4.32 -102 -5 C-100.7625 -5.33 -99.525 -5.66 -98.25 -6 C-97.55390625 -6.185625 -96.8578125 -6.37125 -96.140625 -6.5625 C-94 -7 -94 -7 -90 -7 C-90 -7.66 -90 -8.32 -90 -9 C-63.98510691 -20.7486614 -23.84304425 -14.37771513 0 0 Z " fill="#242022" transform="translate(304,151)"/>
<path d="M0 0 C0 0.66 0 1.32 0 2 C0.86625 2.12375 1.7325 2.2475 2.625 2.375 C5.89513853 2.98058121 8.87256899 3.88306035 12 5 C12 5.66 12 6.32 12 7 C12.88429688 7.26039063 13.76859375 7.52078125 14.6796875 7.7890625 C27.71324521 12.54247766 40.12294468 25.69024049 46 38 C46.73283203 39.2065625 46.73283203 39.2065625 47.48046875 40.4375 C57.39198582 56.88327647 58.38943378 77.1244471 54.8125 95.6875 C49.48025235 116.34685951 37.85240531 133.17114178 20.5703125 145.51171875 C17.78819491 147.12264094 15.07620893 148.08969328 12 149 C12 149.66 12 150.32 12 151 C9.35831514 151.99176917 6.71250544 152.96841851 4.0625 153.9375 C3.32708984 154.21529297 2.59167969 154.49308594 1.83398438 154.77929688 C-17.25687148 161.69869004 -40.91149077 159.26255072 -59.05908203 150.93017578 C-74.51025639 143.52527335 -85.93621764 133.41754615 -94 118 C-94.6796875 115.6875 -94.6796875 115.6875 -95 114 C-95.66 114 -96.32 114 -97 114 C-97.50559908 112.56445975 -98.0042749 111.1264798 -98.5 109.6875 C-98.7784375 108.88699219 -99.056875 108.08648437 -99.34375 107.26171875 C-100 105 -100 105 -100 102 C-100.66 102 -101.32 102 -102 102 C-106.99930454 76.2446543 -104.40232685 52.65198584 -89.875 30.375 C-83.26490512 21.16768403 -74.98063426 13.4578196 -65 8 C-64.41863281 7.64550781 -63.83726562 7.29101562 -63.23828125 6.92578125 C-58.98351574 4.3537994 -54.66942653 2.61745084 -50 1 C-49.05125 0.62875 -48.1025 0.2575 -47.125 -0.125 C-32.43326105 -4.2386869 -14.81430934 -2.74702425 0 0 Z " fill="#F0F2F1" transform="translate(274,172)"/>
<path d="M0 0 C0.66 0 1.32 0 2 0 C5 4.38461538 5 4.38461538 5 7 C5.99 7.33 6.98 7.66 8 8 C10.2825056 11.55802344 12.32359407 14.77246293 13 19 C14.32 19 15.64 19 17 19 C17.103125 19.639375 17.20625 20.27875 17.3125 20.9375 C17.539375 21.618125 17.76625 22.29875 18 23 C18.99 23.33 19.98 23.66 21 24 C21 24.99 21 25.98 21 27 C23.29855488 30.56276007 26.09305478 34.27087389 30.125 35.8125 C32 37 32 37 33.25 40.625 C33.4975 41.73875 33.745 42.8525 34 44 C34.66 44 35.32 44 36 44 C36.66 44.99 37.32 45.98 38 47 C38.66 47.144375 39.32 47.28875 40 47.4375 C40.66 47.623125 41.32 47.80875 42 48 C42.66666667 49.33333333 43.33333333 50.66666667 44 52 C45.0122608 52.90885781 46.05737139 53.78187273 47.125 54.625 C48.07375 55.40875 49.0225 56.1925 50 57 C50 57.66 50 58.32 50 59 C50.66 59 51.32 59 52 59 C52 59.66 52 60.32 52 61 C52.78375 61.309375 53.5675 61.61875 54.375 61.9375 C57 63 57 63 59 64 C59 64.99 59 65.98 59 67 C60.0725 66.9175 61.145 66.835 62.25 66.75 C66 67 66 67 68.25 68.75 C69.85729698 70.81652469 71.42925874 72.90567832 73 75 C75.83623948 78.30894606 77.63991343 79.55281163 82 80 C82.99 80 83.98 80 85 80 C85 80.99 85 81.98 85 83 C86.98 83.99 86.98 83.99 89 85 C89 85.99 89 86.98 89 88 C90.11375 88.185625 90.11375 88.185625 91.25 88.375 C93.83201026 88.96182051 95.65431418 89.82715709 98 91 C98.825 91.144375 99.65 91.28875 100.5 91.4375 C103.31542441 92.07097049 104.82391954 93.14630183 107 95 C107.66 94.67 108.32 94.34 109 94 C112 96 112 96 113 98 C114.03125 98.12375 115.0625 98.2475 116.125 98.375 C120.67578329 99.1089973 123.14202237 100.55923864 127 103 C127 103.66 127 104.32 127 105 C129.31 105.33 131.62 105.66 134 106 C134 106.66 134 107.32 134 108 C135.03125 108.12375 136.0625 108.2475 137.125 108.375 C141 109 141 109 144.0625 110.0625 C146.96241726 111.15202009 146.96241726 111.15202009 150 111 C153.37066347 111 155.86837638 111.80700052 159 113 C159 112.34 159 111.68 159 111 C160.65 111 162.3 111 164 111 C164.33 112.32 164.66 113.64 165 115 C166.32 115 167.64 115 169 115 C169 115.66 169 116.32 169 117 C169.680625 116.95875 170.36125 116.9175 171.0625 116.875 C174.59603614 117.02536324 177.60625552 118.03035872 181 119 C181.9075 119 182.815 119 183.75 119 C186 119 186 119 189 121 C189 120.34 189 119.68 189 119 C189.66 119 190.32 119 191 119 C191 119.66 191 120.32 191 121 C192.32 121.33 193.64 121.66 195 122 C186.15541152 122.42160614 177.96966862 121.17389794 169.3125 119.4375 C168.6383606 119.30406189 167.96422119 119.17062378 167.26965332 119.03314209 C147.41465183 115.08259881 128.38027449 109.56721787 110 101 C109.3100293 100.67918457 108.62005859 100.35836914 107.90917969 100.02783203 C70.07349492 82.21375663 36.47781032 54.94009196 12 21 C11.01461149 19.65213274 10.02894089 18.30447164 9.04296875 16.95703125 C0 4.50364347 0 4.50364347 0 0 Z " fill="#D0D0D0" transform="translate(35,377)"/>
<path d="M0 0 C0.33 0 0.66 0 1 0 C3.64713248 50.00139138 -18.87449678 106.45737193 -50.67919922 144.41894531 C-51.99317702 145.99183261 -53.28115149 147.58328643 -54.56640625 149.1796875 C-62.08132924 158.40120346 -70.49204189 166.70068829 -79 175 C-79.99 174.67 -80.98 174.34 -82 174 C-81.34 173.34 -80.68 172.68 -80 172 C-79.54882812 171.54496094 -79.09765625 171.08992187 -78.6328125 170.62109375 C-77.43434939 169.43123205 -76.21812215 168.25919356 -74.9921875 167.09765625 C-71.04062722 163.2992007 -68.04504229 160.11260573 -66 155 C-65.34 155 -64.68 155 -64 155 C-64 154.34 -64 153.68 -64 153 C-63.236875 152.54625 -62.47375 152.0925 -61.6875 151.625 C-57.76242914 149.25170134 -56.36952923 147.17787443 -55 142.8125 C-54.505 141.4203125 -54.505 141.4203125 -54 140 C-53.01 139.67 -52.02 139.34 -51 139 C-49.61558 137.03501678 -48.28796166 135.02951535 -47 133 C-46.29875 132.13375 -45.5975 131.2675 -44.875 130.375 C-43.23220504 128.29412638 -42.07126026 126.41033558 -41 124 C-40.34 124 -39.68 124 -39 124 C-38.67 121.36 -38.34 118.72 -38 116 C-37.01 115.67 -36.02 115.34 -35 115 C-35 114.01 -35 113.02 -35 112 C-34.34 112 -33.68 112 -33 112 C-33 110.68 -33 109.36 -33 108 C-32.34 108 -31.68 108 -31 108 C-30.9071875 106.081875 -30.9071875 106.081875 -30.8125 104.125 C-30.20204602 98.55128971 -28.17344316 93.62258772 -25 89 C-24.01 88.67 -23.02 88.34 -22 88 C-20.82352163 85.47587751 -20.82352163 85.47587751 -19.9375 82.5 C-19.34361743 80.64918523 -18.70754959 78.81041028 -18 77 C-17.34 76.67 -16.68 76.34 -16 76 C-15.26924352 73.6859378 -14.59861742 71.35171131 -14 69 C-14.66 68.67 -15.32 68.34 -16 68 C-15.34 67.484375 -14.68 66.96875 -14 66.4375 C-11.31489924 63.16503344 -11.92943079 61.16358325 -12 57 C-10.625 53.4375 -10.625 53.4375 -9 50 C-7.01072207 45.0791546 -6.81949761 41.23456926 -7 36 C-6.34 36 -5.68 36 -5 36 C-2.64992004 26.59968016 -3.38727542 16.68188549 -3 7 C-47.22 7 -91.44 7 -137 7 C-137.33 7.66 -137.66 8.32 -138 9 C-138 8.01 -138 7.02 -138 6 C-92.46 6 -46.92 6 0 6 C0 4.02 0 2.04 0 0 Z " fill="#CBCBCB" transform="translate(499,260)"/>
<path d="M0 0 C-1.35492788 3.14152541 -2.73293821 4.86541446 -5.45703125 6.91796875 C-6.15038574 7.44535645 -6.84374023 7.97274414 -7.55810547 8.51611328 C-8.30205566 9.0676709 -9.04600586 9.61922852 -9.8125 10.1875 C-10.58223145 10.76483887 -11.35196289 11.34217773 -12.14501953 11.93701172 C-14.42187708 13.63602505 -16.70866427 15.32058145 -19 17 C-19.58281738 17.43038574 -20.16563477 17.86077148 -20.76611328 18.30419922 C-53.58125508 42.38619738 -101.50508775 64.88613237 -143 63 C-140.16721768 60.16721768 -137.82341131 60.47461052 -133.875 60.0625 C-129.60960579 59.57937779 -125.59672414 59.09446594 -121.625 57.375 C-117.24017469 55.7117904 -113.62366205 55.71102112 -109 56 C-109 55.34 -109 54.68 -109 54 C-105.09971775 51.39981184 -101.52565431 51.84914486 -97 52 C-96.67 51.01 -96.34 50.02 -96 49 C-94.35 49.33 -92.7 49.66 -91 50 C-91 49.34 -91 48.68 -91 48 C-89.35 48 -87.7 48 -86 48 C-85.505 47.01 -85.505 47.01 -85 46 C-77.58823529 44.70588235 -77.58823529 44.70588235 -75 46 C-75 45.34 -75 44.68 -75 44 C-74.33613281 43.75765625 -73.67226563 43.5153125 -72.98828125 43.265625 C-67.9927829 41.36952344 -64.06503451 39.55690519 -60 36 C-59.34 36 -58.68 36 -58 36 C-57.34 34.68 -56.68 33.36 -56 32 C-53.36 32 -50.72 32 -48 32 C-47.505 30.515 -47.505 30.515 -47 29 C-43.9375 27.8125 -43.9375 27.8125 -41 27 C-41 26.01 -41 25.02 -41 24 C-39.68 24 -38.36 24 -37 24 C-37 22.68 -37 21.36 -37 20 C-34.69 20 -32.38 20 -30 20 C-29.505 18.515 -29.505 18.515 -29 17 C-27.35 16.67 -25.7 16.34 -24 16 C-23.67 15.01 -23.34 14.02 -23 13 C-21.29296875 12.12109375 -21.29296875 12.12109375 -19.1875 11.4375 C-16.33130718 10.4632152 -13.66186798 9.44184515 -11 8 C-11 7.34 -11 6.68 -11 6 C-10.01 5.67 -9.02 5.34 -8 5 C-7.34 4.01 -6.68 3.02 -6 2 C-3.83252916 0.71306419 -2.53199972 0 0 0 Z " fill="#CCCCCC" transform="translate(417,436)"/>
<path d="M0 0 C0.33 0 0.66 0 1 0 C1.33 2.31 1.66 4.62 2 7 C-5.69668767 7.8290833 -13.29154273 8.148575 -21.02978516 8.14526367 C-22.75152199 8.15030159 -22.75152199 8.15030159 -24.50804138 8.15544128 C-28.26839302 8.16487128 -32.0286998 8.16688997 -35.7890625 8.16796875 C-38.41978981 8.17118543 -41.05051695 8.17454981 -43.6812439 8.17805481 C-49.180077 8.18442334 -54.67889808 8.18593981 -60.17773438 8.18530273 C-66.5142756 8.18470109 -72.85073194 8.19527965 -79.18725169 8.2110464 C-85.31309899 8.22573965 -91.43890575 8.22928977 -97.56476974 8.22869301 C-100.15862755 8.22987048 -102.75248604 8.23427915 -105.34633255 8.24202538 C-108.97396117 8.2518501 -112.60137159 8.24893791 -116.22900391 8.24291992 C-117.29210281 8.24853943 -118.35520172 8.25415894 -119.45051575 8.25994873 C-125.60808438 8.23406288 -131.0380456 7.55976335 -137 6 C-136.67 5.34 -136.34 4.68 -136 4 C-91.45 4 -46.9 4 -1 4 C-0.67 2.68 -0.34 1.36 0 0 Z " fill="#4E181E" transform="translate(498,228)"/>
<path d="M0 0 C0.33 0 0.66 0 1 0 C2.38532783 26.1673035 -4.21682107 54.8017831 -14 79 C-14.33 79 -14.66 79 -15 79 C-15.125 72.375 -15.125 72.375 -14 69 C-14.66 68.67 -15.32 68.34 -16 68 C-15.34 67.484375 -14.68 66.96875 -14 66.4375 C-11.31489924 63.16503344 -11.92943079 61.16358325 -12 57 C-10.625 53.4375 -10.625 53.4375 -9 50 C-7.01072207 45.0791546 -6.81949761 41.23456926 -7 36 C-6.34 36 -5.68 36 -5 36 C-2.64992004 26.59968016 -3.38727542 16.68188549 -3 7 C-47.22 7 -91.44 7 -137 7 C-137.33 7.66 -137.66 8.32 -138 9 C-138 8.01 -138 7.02 -138 6 C-92.46 6 -46.92 6 0 6 C0 4.02 0 2.04 0 0 Z " fill="#A8A7A8" transform="translate(499,260)"/>
<path d="M0 0 C0.99 0.495 0.99 0.495 2 1 C2.80251406 3.86179544 3.47139397 6.65550396 4.0625 9.5625 C4.2380542 10.41279785 4.4136084 11.2630957 4.59448242 12.13916016 C6.46188127 21.65058663 7.91590623 31.42046887 6 41 C-38.88 41 -83.76 41 -130 41 C-132 36 -132 36 -132.4375 32.75 C-133.33270493 26.7819671 -135.49266936 21.31099942 -137.625 15.6875 C-138.59740234 13.07969373 -139.37147116 10.68607137 -140 8 C-139.01 8 -138.02 8 -137 8 C-136.82984375 8.52207031 -136.6596875 9.04414063 -136.484375 9.58203125 C-134.78934881 14.73022249 -132.95730204 19.79477798 -130.96484375 24.8359375 C-129.55788028 29.44986628 -128.86288604 34.25412677 -128 39 C-84.44 39 -40.88 39 4 39 C3.01 30.09 3.01 30.09 2 21 C2 18.03 2 15.06 2 12 C1.34 12 0.68 12 0 12 C0 8.04 0 4.08 0 0 Z " fill="#A12B33" transform="translate(492,192)"/>
<path d="M0 0 C0 0.66 0 1.32 0 2 C4.62 2 9.24 2 14 2 C14 2.66 14 3.32 14 4 C14.62648438 4.04898438 15.25296875 4.09796875 15.8984375 4.1484375 C16.71570313 4.22320312 17.53296875 4.29796875 18.375 4.375 C19.59316406 4.47941406 19.59316406 4.47941406 20.8359375 4.5859375 C23 5 23 5 25 7 C26.96918164 7.45947572 28.93860824 7.91797403 30.91015625 8.3671875 C34.01669414 9.30785879 36.3729058 11.13184412 39 13 C40.64619113 13.71573527 42.30728055 14.4025696 44 15 C44 15.66 44 16.32 44 17 C40.56193956 16.41597171 37.69408387 15.53926733 34.55078125 14.0390625 C7.87267108 1.68366815 -21.28681068 0.95225045 -50 7 C-50 7.66 -50 8.32 -50 9 C-54.26616316 10.13764351 -57.56486311 11 -62 11 C-62 11.66 -62 12.32 -62 13 C-63.28913487 13.67154933 -64.58140204 14.33708859 -65.875 15 C-66.59429687 15.37125 -67.31359375 15.7425 -68.0546875 16.125 C-70 17 -70 17 -72 17 C-72 16.34 -72 15.68 -72 15 C-64.03469763 10.25471348 -55.86347467 6.7103187 -47 4 C-46.16855469 3.73058594 -45.33710938 3.46117187 -44.48046875 3.18359375 C-30.13128979 -1.16527894 -14.83425164 -0.13097343 0 0 Z " fill="#89232C" transform="translate(264,135)"/>
<path d="M0 0 C0.33 0 0.66 0 1 0 C1.08078641 2.12438339 1.13909141 4.2496323 1.1875 6.375 C1.22230469 7.55835938 1.25710937 8.74171875 1.29296875 9.9609375 C1.19628906 10.96382812 1.09960938 11.96671875 1 13 C-2.27984327 15.18656218 -3.21244722 15.24953589 -7.01203918 15.24723816 C-8.0477002 15.25143265 -9.08336121 15.25562714 -10.15040588 15.25994873 C-11.28646774 15.25432922 -12.4225296 15.24870972 -13.59301758 15.24291992 C-14.79016388 15.24481827 -15.98731018 15.24671661 -17.22073364 15.24867249 C-20.50864242 15.25174708 -23.79638627 15.24585541 -27.08427644 15.23571944 C-30.53573081 15.22692319 -33.98718111 15.22869684 -37.43864441 15.2290802 C-43.24679825 15.22814281 -49.05489995 15.21945691 -54.86303711 15.20581055 C-61.54579264 15.1901656 -68.22849075 15.18480965 -74.91126329 15.1855461 C-82.05360828 15.18622654 -89.19593157 15.17924861 -96.33826995 15.1700995 C-98.37950904 15.16798432 -100.42074455 15.16726048 -102.46198463 15.16686058 C-106.30256541 15.16467069 -110.14307692 15.1558677 -113.98364258 15.14526367 C-115.65433556 15.14594345 -115.65433556 15.14594345 -117.35877991 15.14663696 C-125.27272068 15.11499405 -133.11340924 14.64682697 -141 14 C-140.67 12.02 -140.34 10.04 -140 8 C-139.67 8 -139.34 8 -139 8 C-139 9.65 -139 11.3 -139 13 C-93.79 13 -48.58 13 -2 13 C-1.67 9.7 -1.34 6.4 -1 3 C-0.67 2.01 -0.34 1.02 0 0 Z " fill="#58191E" transform="translate(141,220)"/>
<path d="M0 0 C0.33 0 0.66 0 1 0 C1 5.28 1 10.56 1 16 C1.99 16.33 2.98 16.66 4 17 C2 21 2 21 0.9375 22.8125 C-0.40814288 25.69055454 -0.40814288 25.69055454 -1 32 C43.22 32 87.44 32 133 32 C133.33 28.04 133.66 24.08 134 20 C134.66 18.68 135.32 17.36 136 16 C136.66 16 137.32 16 138 16 C137.24909074 21.756971 136.14574471 27.27127643 135 33 C89.79 33 44.58 33 -2 33 C-3.66294512 24.68527439 -2.92982142 17.23948114 -1.5 8.9375 C-1.35691406 8.07189453 -1.21382813 7.20628906 -1.06640625 6.31445312 C-0.71736324 4.2085603 -0.35960461 2.10411505 0 0 Z " fill="#9D2830" transform="translate(4,200)"/>
<path d="M0 0 C0.99 0 1.98 0 3 0 C3.33 3.63 3.66 7.26 4 11 C4.99 11 5.98 11 7 11 C6.773125 11.680625 6.54625 12.36125 6.3125 13.0625 C5.88866038 17.04659243 7.30814819 19.42108272 9 23 C9.185625 23.763125 9.37125 24.52625 9.5625 25.3125 C9.91285592 27.25086933 9.91285592 27.25086933 12 29 C11.95875 29.845625 11.9175 30.69125 11.875 31.5625 C12.04757343 36.30826925 13.96304318 39.7766571 16 44 C16.91819993 46.26849394 17.82030665 48.54242021 18.71484375 50.8203125 C20.03137115 54.59992751 20.03137115 54.59992751 23 57 C23.625 60.0625 23.625 60.0625 24 63 C24.66 63 25.32 63 26 63 C28.21399303 66.79541663 29.00980198 70.75629421 30 75 C26.29428592 73.55397612 25.08305448 71.9430044 23.30078125 68.43359375 C22.57677124 67.0117981 22.57677124 67.0117981 21.83813477 65.5612793 C21.33467529 64.53043213 20.83121582 63.49958496 20.3125 62.4375 C19.78648193 61.36991455 19.26046387 60.3023291 18.71850586 59.20239258 C-1.10016498 18.02851004 -1.10016498 18.02851004 0 0 Z " fill="#C5C5C5" transform="translate(5,301)"/>
<path d="M0 0 C2.97 0.33 5.94 0.66 9 1 C9 1.66 9 2.32 9 3 C10.03125 3.12375 11.0625 3.2475 12.125 3.375 C16 4 16 4 19.0625 5.0625 C21.96241726 6.15202009 21.96241726 6.15202009 25 6 C28.37066347 6 30.86837638 6.80700052 34 8 C34 7.34 34 6.68 34 6 C35.65 6 37.3 6 39 6 C39.495 7.98 39.495 7.98 40 10 C41.32 10 42.64 10 44 10 C44 10.66 44 11.32 44 12 C44.680625 11.95875 45.36125 11.9175 46.0625 11.875 C49.59603614 12.02536324 52.60625552 13.03035872 56 14 C56.9075 14 57.815 14 58.75 14 C61 14 61 14 64 16 C64 15.34 64 14.68 64 14 C64.66 14 65.32 14 66 14 C66 14.66 66 15.32 66 16 C67.98 16.495 67.98 16.495 70 17 C61.15497619 17.42162689 52.97026581 16.17240198 44.3125 14.4375 C43.64334564 14.30605591 42.97419128 14.17461182 42.28475952 14.03918457 C11.19555184 7.90765707 11.19555184 7.90765707 0 2 C0 1.34 0 0.68 0 0 Z " fill="#C8C8C8" transform="translate(160,482)"/>
<path d="M0 0 C0.495 0.99 0.495 0.99 1 2 C1.66 2.33 2.32 2.66 3 3 C-3.11370622 12.22339383 -9.73059004 20.66976985 -17 29 C-17.58136719 29.69351562 -18.16273438 30.38703125 -18.76171875 31.1015625 C-24.71742674 38.15240068 -31.43864702 44.52055018 -38 51 C-38.99 50.67 -39.98 50.34 -41 50 C-40.34 49.34 -39.68 48.68 -39 48 C-38.32324219 47.31744141 -38.32324219 47.31744141 -37.6328125 46.62109375 C-36.43434939 45.43123205 -35.21812215 44.25919356 -33.9921875 43.09765625 C-30.04062722 39.2992007 -27.04504229 36.11260573 -25 31 C-24.34 31 -23.68 31 -23 31 C-23 30.34 -23 29.68 -23 29 C-22.236875 28.54625 -21.47375 28.0925 -20.6875 27.625 C-16.76242914 25.25170134 -15.36952923 23.17787443 -14 18.8125 C-13.67 17.884375 -13.34 16.95625 -13 16 C-12.01 15.67 -11.02 15.34 -10 15 C-8.61558 13.03501678 -7.28796166 11.02951535 -6 9 C-4.948125 7.700625 -4.948125 7.700625 -3.875 6.375 C-2.23220504 4.29412638 -1.07126026 2.41033558 0 0 Z " fill="#D2D2D2" transform="translate(458,384)"/>
<path d="M0 0 C0 0.33 0 0.66 0 1 C-3.71599191 1.20086443 -4.77208445 1.1519437 -8 -1 C-10.07307601 -1.59674812 -10.07307601 -1.59674812 -12.3125 -2 C-14.96975765 -2.54168816 -17.32181435 -3.11893139 -19.875 -4.0625 C-29.1039408 -6.83118224 -39.3960069 -6.21169998 -48.9375 -6.25 C-50.85852539 -6.2809375 -50.85852539 -6.2809375 -52.81835938 -6.3125 C-60.04703207 -6.3419597 -66.3884814 -5.75483773 -73.31860352 -3.64746094 C-76.29212882 -2.92946138 -78.95212856 -2.89371468 -82 -3 C-82 -3.66 -82 -4.32 -82 -5 C-58.76439078 -15.49350094 -22.37354259 -11.11483064 0 0 Z " fill="#3A1319" transform="translate(296,147)"/>
<path d="M0 0 C19.53333498 -0.78569839 38.12155648 2.03562207 57 7 C57 7.33 57 7.66 57 8 C52.545 8.495 52.545 8.495 48 9 C48 8.34 48 7.68 48 7 C46.89140625 7.02320313 45.7828125 7.04640625 44.640625 7.0703125 C43.17709008 7.08907577 41.71354786 7.10727537 40.25 7.125 C39.52039063 7.14175781 38.79078125 7.15851562 38.0390625 7.17578125 C34.14260099 7.21120363 31.32266812 7.09607569 28 5 C25.3093858 4.1031286 23.11102904 3.72140874 20.3125 3.4375 C19.50425781 3.35371094 18.69601562 3.26992187 17.86328125 3.18359375 C17.24839844 3.12300781 16.63351562 3.06242188 16 3 C15.67 3.99 15.34 4.98 15 6 C14.01 5.67 13.02 5.34 12 5 C12 4.34 12 3.68 12 3 C10.948125 2.855625 9.89625 2.71125 8.8125 2.5625 C5.84539451 2.12473034 2.93205634 1.62195134 0 1 C0 0.67 0 0.34 0 0 Z " fill="#991F31" transform="translate(260,1)"/>
<path d="M0 0 C-1.35492788 3.14152541 -2.73293821 4.86541446 -5.45703125 6.91796875 C-6.1519165 7.44624268 -6.84680176 7.9745166 -7.56274414 8.51879883 C-8.30516357 9.06947021 -9.04758301 9.6201416 -9.8125 10.1875 C-10.56845459 10.75686279 -11.32440918 11.32622559 -12.10327148 11.9128418 C-18.61436147 16.78673236 -25.25299269 21.45897073 -32 26 C-32.33 25.34 -32.66 24.68 -33 24 C-33.99 24.33 -34.98 24.66 -36 25 C-36.33 23.35 -36.66 21.7 -37 20 C-34.69 20 -32.38 20 -30 20 C-29.67 19.01 -29.34 18.02 -29 17 C-27.35 16.67 -25.7 16.34 -24 16 C-23.67 15.01 -23.34 14.02 -23 13 C-21.29296875 12.12109375 -21.29296875 12.12109375 -19.1875 11.4375 C-16.33130718 10.4632152 -13.66186798 9.44184515 -11 8 C-11 7.34 -11 6.68 -11 6 C-10.01 5.67 -9.02 5.34 -8 5 C-7.34 4.01 -6.68 3.02 -6 2 C-3.83252916 0.71306419 -2.53199972 0 0 0 Z " fill="#D3D5D4" transform="translate(417,436)"/>
<path d="M0 0 C-0.33 0.66 -0.66 1.32 -1 2 C-5.46648561 3.06632314 -9.80008379 3.10565959 -14.375 3.0625 C-16.24285156 3.04896484 -16.24285156 3.04896484 -18.1484375 3.03515625 C-19.55996094 3.01775391 -19.55996094 3.01775391 -21 3 C-21 3.66 -21 4.32 -21 5 C-25.33009615 7.10124509 -29.45672908 7.38696913 -34.1875 7.5625 C-39.24832447 7.58007781 -39.24832447 7.58007781 -44 9 C-47 9.1875 -47 9.1875 -50 9 C-50.66 8.34 -51.32 7.68 -52 7 C-27.95071827 1.88624022 -27.95071827 1.88624022 -17 0.6875 C-15.97253662 0.57365967 -15.97253662 0.57365967 -14.92431641 0.45751953 C-9.94115731 -0.03357086 -4.99981799 -0.07161198 0 0 Z " fill="#8D1D2D" transform="translate(239,0)"/>
<path d="M0 0 C0 0.33 0 0.66 0 1 C-9.24 1.33 -18.48 1.66 -28 2 C-28 2.66 -28 3.32 -28 4 C-29.75376953 4.19916016 -29.75376953 4.19916016 -31.54296875 4.40234375 C-33.09115839 4.58062013 -34.63933478 4.75901161 -36.1875 4.9375 C-36.95642578 5.02451172 -37.72535156 5.11152344 -38.51757812 5.20117188 C-42.38772828 5.64964421 -46.19186624 6.1529001 -50 7 C-50 7.66 -50 8.32 -50 9 C-54.26616316 10.13764351 -57.56486311 11 -62 11 C-62 11.66 -62 12.32 -62 13 C-63.28913487 13.67154933 -64.58140204 14.33708859 -65.875 15 C-66.59429687 15.37125 -67.31359375 15.7425 -68.0546875 16.125 C-70 17 -70 17 -72 17 C-72 16.34 -72 15.68 -72 15 C-64.03469763 10.25471348 -55.86347467 6.7103187 -47 4 C-46.16855469 3.73058594 -45.33710938 3.46117187 -44.48046875 3.18359375 C-30.13128979 -1.16527894 -14.83425164 -0.13097343 0 0 Z " fill="#A02631" transform="translate(264,135)"/>
<path d="M0 0 C0 4.05478064 -1.02056807 7.45254747 -3 11 C-4.64991582 11.70710678 -6.31562256 12.37943989 -8 13 C-8.67801034 15.90073181 -8.67801034 15.90073181 -9 19 C-9.474375 19.61875 -9.94875 20.2375 -10.4375 20.875 C-13.07579781 24.46308502 -13.55901174 28.81911261 -14.4296875 33.125 C-15 35 -15 35 -17 37 C-17.71408334 38.98356483 -18.38617742 40.98315437 -19 43 C-19.66 43 -20.32 43 -21 43 C-19.78851528 34.92343522 -17.86580082 28.09238151 -14.125 20.875 C-13.61646484 19.85986328 -13.61646484 19.85986328 -13.09765625 18.82421875 C-7.45192931 7.72596466 -7.45192931 7.72596466 -4 6 C-2.96986723 4.35178756 -1.96885372 2.68496298 -1 1 C-0.67 0.67 -0.34 0.34 0 0 Z " fill="#57191D" transform="translate(163,177)"/>
<path d="M0 0 C0.33 0 0.66 0 1 0 C0.95875 1.216875 0.9175 2.43375 0.875 3.6875 C0.86245492 7.21894127 1.40001783 9.80003566 3 13 C2.51660156 13.39316406 2.03320312 13.78632813 1.53515625 14.19140625 C-0.4331018 16.51024462 -0.42234222 17.93088956 -0.5625 20.9375 C-0.82659977 26.24350452 -2.04030254 29.40027504 -6 33 C-7.7117966 26.12329986 -5.9360537 20.41254607 -4.125 13.6875 C-3.84269531 12.59115234 -3.56039063 11.49480469 -3.26953125 10.36523438 C-1.19148166 2.38296332 -1.19148166 2.38296332 0 0 Z " fill="#9C1C2C" transform="translate(12,170)"/>
<path d="M0 0 C0.99 0.495 0.99 0.495 2 1 C2.80251406 3.86179544 3.47139397 6.65550396 4.0625 9.5625 C4.2380542 10.41279785 4.4136084 11.2630957 4.59448242 12.13916016 C6.4115731 21.39434652 8.3110875 31.72036622 6 41 C4.35 40.67 2.7 40.34 1 40 C2.485 39.505 2.485 39.505 4 39 C3.855625 37.80503906 3.71125 36.61007813 3.5625 35.37890625 C3.37472957 33.77346911 3.1872449 32.16799852 3 30.5625 C2.85691406 29.3878418 2.85691406 29.3878418 2.7109375 28.18945312 C2.08488869 22.75624381 1.91240429 17.46925737 2 12 C1.34 12 0.68 12 0 12 C0 8.04 0 4.08 0 0 Z " fill="#942031" transform="translate(492,192)"/>
<path d="M0 0 C0.33 0.66 0.66 1.32 1 2 C0.0625 4.125 0.0625 4.125 -1 6 C-1.33 6 -1.66 6 -2 6 C-2.33 7.65 -2.66 9.3 -3 11 C-6 12 -6 12 -8 12 C-8.66 13.65 -9.32 15.3 -10 17 C-10.66 16.67 -11.32 16.34 -12 16 C-14.93361338 18.42341975 -15.4567874 20.28804726 -16 24 C-16.185625 24.70125 -16.37125 25.4025 -16.5625 26.125 C-17.11361481 28.1660264 -17.11361481 28.1660264 -17 31 C-20 29 -20 29 -20.6875 26.875 C-20.790625 26.25625 -20.89375 25.6375 -21 25 C-21.33 25.66 -21.66 26.32 -22 27 C-22.66 27 -23.32 27 -24 27 C-22.34819975 22.92949223 -19.46857139 20.02111087 -16.5 16.875 C-15.97116211 16.30821533 -15.44232422 15.74143066 -14.89746094 15.1574707 C-10.04784027 9.98787955 -5.06232674 4.9615282 0 0 Z " fill="#B2404B" transform="translate(80,65)"/>
<path d="M0 0 C3.3125 0.1875 3.3125 0.1875 7 1 C8.8125 3.4375 8.8125 3.4375 10 6 C10.66 6.66 11.32 7.32 12 8 C12.598125 8.680625 13.19625 9.36125 13.8125 10.0625 C17.05476717 12.93422235 19.78194848 13 24 13 C24 13.99 24 14.98 24 16 C25.32 16.66 26.64 17.32 28 18 C28 18.66 28 19.32 28 20 C27.34 20 26.68 20 26 20 C26 19.34 26 18.68 26 18 C25.26628174 18.21495117 24.53256348 18.42990234 23.77661133 18.65136719 C20.37569033 19.07838866 19.3797917 18.46237698 16.57421875 16.578125 C15.77822266 16.04703125 14.98222656 15.5159375 14.16210938 14.96875 C13.34548828 14.4015625 12.52886719 13.834375 11.6875 13.25 C10.85154297 12.69828125 10.01558594 12.1465625 9.15429688 11.578125 C4.60760985 8.49008941 4.60760985 8.49008941 3 7 C3 6.01 3 5.02 3 4 C1.56009377 1.82967524 1.56009377 1.82967524 0 0 Z " fill="#CFCFCF" transform="translate(96,444)"/>
<path d="M0 0 C0.66 0 1.32 0 2 0 C5 4.38461538 5 4.38461538 5 7 C5.99 7.33 6.98 7.66 8 8 C10.2825056 11.55802344 12.32359407 14.77246293 13 19 C14.32 19 15.64 19 17 19 C17.103125 19.639375 17.20625 20.27875 17.3125 20.9375 C17.539375 21.618125 17.76625 22.29875 18 23 C18.99 23.33 19.98 23.66 21 24 C21 24.99 21 25.98 21 27 C21.62599617 28.68236471 22.28752268 30.3523962 23 32 C19.80738553 30.6296462 18.07317968 29.19309377 15.9765625 26.4375 C15.43281982 25.7273877 14.88907715 25.01727539 14.32885742 24.28564453 C13.76658447 23.53138184 13.20431152 22.77711914 12.625 22 C12.04790283 21.23413574 11.47080566 20.46827148 10.8762207 19.67919922 C0 5.09234041 0 5.09234041 0 0 Z " fill="#CACACA" transform="translate(35,377)"/>
<path d="M0 0 C2.0625 0.4375 2.0625 0.4375 4 1 C3.34 2.98 2.68 4.96 2 7 C2.33 7.33 2.66 7.66 3 8 C2.979375 8.969375 2.95875 9.93875 2.9375 10.9375 C2.84691978 16.41760358 4.11296156 21.7883091 5.56640625 27.05078125 C6 29 6 29 6 33 C5.01 33 4.02 33 3 33 C1.24778192 24.71277989 -0.22526866 16.52777901 -0.75 8.0625 C-0.79439209 7.37091797 -0.83878418 6.67933594 -0.88452148 5.96679688 C-0.97001438 4.31295874 -0.99147478 2.65602444 -1 1 C-0.67 0.67 -0.34 0.34 0 0 Z " fill="#BEBCBD" transform="translate(1,267)"/>
<path d="M0 0 C1.9453125 0.2421875 1.9453125 0.2421875 4.125 0.875 C4.84945312 1.07867187 5.57390625 1.28234375 6.3203125 1.4921875 C7.15175781 1.74355469 7.15175781 1.74355469 8 2 C4.18685118 5.81314882 -2.10569234 5.97712503 -7.25 7.0625 C-9.06371094 7.4656543 -9.06371094 7.4656543 -10.9140625 7.87695312 C-19.3105201 9.67171832 -27.42831047 10.61090123 -36 11 C-33.16721768 8.16721768 -30.82341131 8.47461052 -26.875 8.0625 C-22.60960579 7.57937779 -18.59672414 7.09446594 -14.625 5.375 C-10.24017469 3.7117904 -6.62366205 3.71102112 -2 4 C-2 3.34 -2 2.68 -2 2 C-1.34 1.34 -0.68 0.68 0 0 Z " fill="#C1C0C0" transform="translate(310,488)"/>
<path d="M0 0 C0.66 0.33 1.32 0.66 2 1 C2 1.99 2 2.98 2 4 C-1.76737643 6.96823597 -5.29761275 7.53898164 -10 8 C-10.33 8.99 -10.66 9.98 -11 11 C-12.11375 11.12375 -12.11375 11.12375 -13.25 11.25 C-16.11588886 11.77363765 -16.11588886 11.77363765 -17.875 14 C-20.7437254 16.69997685 -23.15663267 16.70435636 -27 17 C-23.25964241 12.61546972 -18.44855963 10.16649517 -13.5 7.375 C-12.64535156 6.88515625 -11.79070312 6.3953125 -10.91015625 5.890625 C-8.61398025 4.57954791 -6.31717516 3.27359833 -4 2 C-3.29037109 1.59861816 -2.58074219 1.19723633 -1.84960938 0.78369141 C-0.93405273 0.39576416 -0.93405273 0.39576416 0 0 Z " fill="#BD5B67" transform="translate(136,26)"/>
<path d="M0 0 C5.48900312 4.44347871 6.70382694 12.23983321 8.3515625 18.7421875 C8.7882209 20.94970239 8.7882209 20.94970239 10 22 C10.23363881 23.84891946 10.41303635 25.70488031 10.5625 27.5625 C10.64628906 28.57441406 10.73007812 29.58632812 10.81640625 30.62890625 C10.87699219 31.41136719 10.93757813 32.19382813 11 33 C10.01 33 9.02 33 8 33 C8 29.37 8 25.74 8 22 C7.34 22 6.68 22 6 22 C5.67 19.36 5.34 16.72 5 14 C4.34 14 3.68 14 3 14 C2.49307308 12.4188708 1.99473557 10.83498617 1.5 9.25 C1.2215625 8.36828125 0.943125 7.4865625 0.65625 6.578125 C0 4 0 4 0 0 Z " fill="#421619" transform="translate(350,199)"/>
<path d="M0 0 C2.475 0.495 2.475 0.495 5 1 C0.76183463 6.06623768 -3.67408963 10.80038069 -8.375 15.4375 C-9.01566406 16.07365234 -9.65632813 16.70980469 -10.31640625 17.36523438 C-11.87530879 18.91250332 -13.43651416 20.45736492 -15 22 C-15.99 21.67 -16.98 21.34 -18 21 C-17.34 20.34 -16.68 19.68 -16 19 C-15.32324219 18.31744141 -15.32324219 18.31744141 -14.6328125 17.62109375 C-13.43434939 16.43123205 -12.21812215 15.25919356 -10.9921875 14.09765625 C-7.04062722 10.2992007 -4.04504229 7.11260573 -2 2 C-1.34 2 -0.68 2 0 2 C0 1.34 0 0.68 0 0 Z " fill="#D7D7D7" transform="translate(435,413)"/>
<path d="M0 0 C2.41486943 2.41486943 2.2961925 3.12707789 2.3125 6.4375 C2.32925781 7.21996094 2.34601562 8.00242188 2.36328125 8.80859375 C1.92353251 11.46127163 1.04371546 12.322967 -1 14 C-0.67 14.33 -0.34 14.66 0 15 C0.04063832 16.66617115 0.042721 18.33388095 0 20 C-1.66666667 20 -3.33333333 20 -5 20 C-4.7201206 12.513226 -3.52350129 6.63729312 0 0 Z " fill="#951C29" transform="translate(22,144)"/>
<path d="M0 0 C0 0.99 0 1.98 0 3 C-1.32 3.33 -2.64 3.66 -4 4 C-4.12375 4.61875 -4.2475 5.2375 -4.375 5.875 C-5 8 -5 8 -7 10 C-9.625 10.625 -9.625 10.625 -12 11 C-12.33 11.99 -12.66 12.98 -13 14 C-13.99 14 -14.98 14 -16 14 C-16.2475 14.804375 -16.495 15.60875 -16.75 16.4375 C-18 19 -18 19 -20.125 19.8125 C-20.74375 19.874375 -21.3625 19.93625 -22 20 C-20.55922954 16.63820226 -18.75249979 14.40843732 -16 12 C-15.34 12 -14.68 12 -14 12 C-14 11.01 -14 10.02 -14 9 C-12.36935236 7.94228261 -10.69719127 6.94726954 -9 6 C-8.443125 5.443125 -7.88625 4.88625 -7.3125 4.3125 C-6.6628125 3.6628125 -6.6628125 3.6628125 -6 3 C-5.34 3 -4.68 3 -4 3 C-4 2.34 -4 1.68 -4 1 C-2 0 -2 0 0 0 Z " fill="#481917" transform="translate(188,156)"/>
<path d="M0 0 C6.17851326 5.18140449 11.66495075 10.11492177 16 17 C16.59554688 17.91007812 17.19109375 18.82015625 17.8046875 19.7578125 C18.44664062 20.74523437 19.08859375 21.73265625 19.75 22.75 C20.36359375 23.69359375 20.9771875 24.6371875 21.609375 25.609375 C23 28 23 28 23 30 C19.8255824 28.90537324 19.01085843 28.01822665 17.25 25.0625 C16 22 16 22 16 19 C15.4225 18.979375 14.845 18.95875 14.25 18.9375 C10.57066705 17.40444461 9.72716653 14.51601757 8 11 C8 10.34 8 9.68 8 9 C7.4225 8.773125 6.845 8.54625 6.25 8.3125 C3.40260191 6.65151778 1.87932807 4.68475439 0 2 C0 1.34 0 0.68 0 0 Z " fill="#49181B" transform="translate(327,168)"/>
<path d="M0 0 C0.66 0.33 1.32 0.66 2 1 C2 1.99 2 2.98 2 4 C1.195625 4.28875 0.39125 4.5775 -0.4375 4.875 C-3.1326468 5.73262568 -3.1326468 5.73262568 -4 8 C-4.66 8 -5.32 8 -6 8 C-6.020625 8.5775 -6.04125 9.155 -6.0625 9.75 C-7.35654514 12.85570833 -9.27836351 13.70906678 -12.11328125 15.36328125 C-14.45131645 16.15230762 -15.670906 15.66800192 -18 15 C-15.75131288 13.0609583 -13.50111139 11.12372378 -11.25 9.1875 C-10.61578125 8.64029297 -9.9815625 8.09308594 -9.328125 7.52929688 C-6.28730038 4.91608821 -3.25718629 2.3441871 0 0 Z " fill="#B3414B" transform="translate(99,49)"/>
<path d="M0 0 C1.32 0.33 2.64 0.66 4 1 C3.34 1 2.68 1 2 1 C2 1.99 2 2.98 2 4 C0.64453125 5.4296875 0.64453125 5.4296875 -1.1875 6.875 C-5.19480038 10.15370031 -8.9624485 13.24414361 -11.625 17.75 C-13 20 -13 20 -16 21 C-15.625 18.5625 -15.625 18.5625 -15 16 C-14.34 15.67 -13.68 15.34 -13 15 C-12.67 14.01 -12.34 13.02 -12 12 C-11.34 12 -10.68 12 -10 12 C-9.814375 11.071875 -9.814375 11.071875 -9.625 10.125 C-9 8 -9 8 -7 6 C-6.175 5.71125 -5.35 5.4225 -4.5 5.125 C-1.8604924 4.21791378 -1.8604924 4.21791378 -0.6875 1.875 C-0.460625 1.25625 -0.23375 0.6375 0 0 Z " fill="#9A2730" transform="translate(172,164)"/>
<path d="M0 0 C-3.69930679 2.46620453 -6.76829065 2.40683016 -11.0625 2.5625 C-16.1877349 2.5720361 -16.1877349 2.5720361 -21 4 C-24 4.1875 -24 4.1875 -27 4 C-27.66 3.34 -28.32 2.68 -29 2 C-18.88815369 -1.06472054 -10.38718351 -1.10672174 0 0 Z " fill="#981B2A" transform="translate(216,5)"/>
<path d="M0 0 C0.33 0.66 0.66 1.32 1 2 C1.680625 1.95875 2.36125 1.9175 3.0625 1.875 C6.59603614 2.02536324 9.60625552 3.03035872 13 4 C13.9075 4 14.815 4 15.75 4 C18 4 18 4 21 6 C21 5.34 21 4.68 21 4 C21.66 4 22.32 4 23 4 C23 4.66 23 5.32 23 6 C24.32 6.33 25.64 6.66 27 7 C18.611484 7.37952316 10.99702441 6.27403282 2.8125 4.5 C1.66974609 4.26152344 0.52699219 4.02304687 -0.65039062 3.77734375 C-3.43580392 3.1946213 -6.21871267 2.60205183 -9 2 C-9 1.67 -9 1.34 -9 1 C-7.700625 1.020625 -6.40125 1.04125 -5.0625 1.0625 C-3.70834367 1.08399454 -2.35243917 1.07148199 -1 1 C-0.67 0.67 -0.34 0.34 0 0 Z " fill="#C4C2C3" transform="translate(203,492)"/>
<path d="M0 0 C-0.63671875 1.89453125 -0.63671875 1.89453125 -2 4 C-4.64453125 5.01171875 -4.64453125 5.01171875 -7.8125 5.6875 C-9.36904297 6.03361328 -9.36904297 6.03361328 -10.95703125 6.38671875 C-11.96121094 6.58910156 -12.96539062 6.79148437 -14 7 C-14.95261719 7.19207031 -15.90523437 7.38414063 -16.88671875 7.58203125 C-17.58410156 7.71996094 -18.28148437 7.85789062 -19 8 C-19.33 7.34 -19.66 6.68 -20 6 C-7.40104167 -0.453125 -7.40104167 -0.453125 0 0 Z " fill="#931929" transform="translate(182,10)"/>
<path d="M0 0 C7.42857143 1 7.42857143 1 11 2 C11 1.34 11 0.68 11 0 C12.65 0 14.3 0 16 0 C16.103125 0.639375 16.20625 1.27875 16.3125 1.9375 C16.6528125 2.9584375 16.6528125 2.9584375 17 4 C17.99 4.33 18.98 4.66 20 5 C15.19651495 6.60116168 9.8351138 6.6117046 5 5 C5 4.34 5 3.68 5 3 C3.35 2.67 1.7 2.34 0 2 C0 1.34 0 0.68 0 0 Z " fill="#D4D5D4" transform="translate(183,488)"/>
<path d="M0 0 C3.92285792 2.61523861 4.42438112 5.5628419 5.6875 9.875 C5.91244141 10.59558594 6.13738281 11.31617188 6.36914062 12.05859375 C7.42518203 15.54449333 8 18.32920198 8 22 C6.68 22 5.36 22 4 22 C3.81824219 20.60974609 3.81824219 20.60974609 3.6328125 19.19140625 C3.46523438 17.99386719 3.29765625 16.79632813 3.125 15.5625 C2.96257812 14.36753906 2.80015625 13.17257813 2.6328125 11.94140625 C2.42398437 10.97074219 2.21515625 10.00007812 2 9 C1.34 8.67 0.68 8.34 0 8 C0 5.36 0 2.72 0 0 Z " fill="#9F2A3D" transform="translate(484,165)"/>
<path d="M0 0 C10.01380022 0.38588826 19.33776952 2.53864982 29 5 C29 5.33 29 5.66 29 6 C24.545 6.495 24.545 6.495 20 7 C20 6.34 20 5.68 20 5 C17.03 5 14.06 5 11 5 C11 4.34 11 3.68 11 3 C9.9275 2.87625 8.855 2.7525 7.75 2.625 C4.55333667 2.09222278 2.75908348 1.50162508 0 0 Z " fill="#922A38" transform="translate(288,3)"/>
<path d="M0 0 C-1.32 0.33 -2.64 0.66 -4 1 C-4 1.66 -4 2.32 -4 3 C-5.32 3.33 -6.64 3.66 -8 4 C-8 4.66 -8 5.32 -8 6 C-10.0625 8.6875 -10.0625 8.6875 -13 11 C-16.8125 10.8125 -16.8125 10.8125 -20 10 C-20 9.34 -20 8.68 -20 8 C-18.04414675 6.99515796 -16.08523763 5.99626195 -14.125 5 C-13.03445312 4.443125 -11.94390625 3.88625 -10.8203125 3.3125 C-8 2 -8 2 -6 2 C-6 1.34 -6 0.68 -6 0 C-2.25 -1.125 -2.25 -1.125 0 0 Z " fill="#501820" transform="translate(208,146)"/>
<path d="M0 0 C6.79245283 6.60377358 6.79245283 6.60377358 9 10 C8.75 12.8125 8.75 12.8125 8 15 C7.67 14.34 7.34 13.68 7 13 C6.34 12.855625 5.68 12.71125 5 12.5625 C4.34 12.376875 3.68 12.19125 3 12 C2.67 11.01 2.34 10.02 2 9 C1.649375 8.195625 1.29875 7.39125 0.9375 6.5625 C0 4 0 4 0 0 Z " fill="#AD303D" transform="translate(443,91)"/>
<path d="M0 0 C1.25686099 3.77058297 0.82745636 6.13853697 0 10 C-1.4375 11.5625 -1.4375 11.5625 -3 13 C-4.20049407 16.10007201 -4.20049407 16.10007201 -5 19 C-5.66 19 -6.32 19 -7 19 C-4.94047619 5.26984127 -4.94047619 5.26984127 0 0 Z " fill="#3F1617" transform="translate(149,201)"/>
<path d="M0 0 C8.81430724 2.01582811 15.81956162 6.66339027 23 12 C21.19140625 12.6171875 21.19140625 12.6171875 19 13 C15.9375 11.125 15.9375 11.125 13 9 C12.01 8.67 11.02 8.34 10 8 C10 7.34 10 6.68 10 6 C9.0925 5.7525 8.185 5.505 7.25 5.25 C3.89648511 3.96018658 2.32291764 2.68028958 0 0 Z " fill="#441818" transform="translate(296,148)"/>
<path d="M0 0 C0.66 0 1.32 0 2 0 C2.43200679 4.75207471 0.98489083 7.78210698 -1 12 C-1.66 12 -2.32 12 -3 12 C-3 13.32 -3 14.64 -3 16 C-3.66 16 -4.32 16 -5 16 C-5.91027075 12.95114133 -6.14229959 11.39103463 -5.0390625 8.359375 C-4.33910156 7.06773437 -4.33910156 7.06773437 -3.625 5.75 C-3.16351563 4.87859375 -2.70203125 4.0071875 -2.2265625 3.109375 C-1 1 -1 1 0 0 Z " fill="#DADADA" transform="translate(475,348)"/>
<path d="M0 0 C0.99 0.495 0.99 0.495 2 1 C2.8515625 3.80078125 2.8515625 3.80078125 3.625 7.3125 C3.88539063 8.46363281 4.14578125 9.61476562 4.4140625 10.80078125 C5 14 5 14 5 18 C4.34 18 3.68 18 3 18 C2.67 18.99 2.34 19.98 2 21 C2 18.03 2 15.06 2 12 C1.34 12 0.68 12 0 12 C0 8.04 0 4.08 0 0 Z " fill="#961E35" transform="translate(492,192)"/>
<path d="M0 0 C2.42422357 0.38684419 3.69812356 0.68227922 5.4140625 2.48828125 C6.01347656 3.39126953 6.01347656 3.39126953 6.625 4.3125 C7.04394531 4.94285156 7.46289062 5.57320312 7.89453125 6.22265625 C11 11.2155477 11 11.2155477 11 15 C11.66 15 12.32 15 13 15 C14.5625 17.8125 14.5625 17.8125 16 21 C15.67 21.99 15.34 22.98 15 24 C14.45730469 23.02417969 13.91460937 22.04835937 13.35546875 21.04296875 C12.6330725 19.75766633 11.91040182 18.47251813 11.1875 17.1875 C10.65286133 16.22360352 10.65286133 16.22360352 10.10742188 15.24023438 C8.33053339 12.09400064 6.61121293 9.48574925 4 7 C3.67 6.01 3.34 5.02 3 4 C2.01 3.34 1.02 2.68 0 2 C0 1.34 0 0.68 0 0 Z " fill="#952832" transform="translate(336,176)"/>
<path d="M0 0 C-2.31381865 2.70813501 -4.09294125 3.54122688 -7.5625 4.25 C-8.74005859 4.50523437 -8.74005859 4.50523437 -9.94140625 4.765625 C-12 5 -12 5 -14 4 C-14 3.01 -14 2.02 -14 1 C-14.66 0.67 -15.32 0.34 -16 0 C-13.7089095 -0.19441368 -11.41709663 -0.38033135 -9.125 -0.5625 C-7.21074219 -0.71912109 -7.21074219 -0.71912109 -5.2578125 -0.87890625 C-2 -1 -2 -1 0 0 Z " fill="#A61A29" transform="translate(234,3)"/>
<path d="M0 0 C4.79997919 0.2999987 7.60671567 2.74262661 11.23046875 5.625 C12.96021771 7.06163651 12.96021771 7.06163651 15 8 C15 8.99 15 9.98 15 11 C16.32 11.66 17.64 12.32 19 13 C19 13.99 19 14.98 19 16 C18.13117188 15.25234375 17.26234375 14.5046875 16.3671875 13.734375 C15.20327021 12.73941344 14.03919951 11.74463132 12.875 10.75 C12.30523437 10.25886719 11.73546875 9.76773438 11.1484375 9.26171875 C8.37945094 6.90178702 5.62278423 4.68785971 2.5703125 2.703125 C1.72210938 2.14109375 0.87390625 1.5790625 0 1 C0 0.67 0 0.34 0 0 Z " fill="#902931" transform="translate(308,152)"/>
<path d="M0 0 C5.61 0 11.22 0 17 0 C17 0.66 17 1.32 17 2 C17.66 2.33 18.32 2.66 19 3 C18.01 3 17.02 3 16 3 C15.67 3.99 15.34 4.98 15 6 C14.01 5.67 13.02 5.34 12 5 C12 4.34 12 3.68 12 3 C10.948125 2.855625 9.89625 2.71125 8.8125 2.5625 C5.84539451 2.12473034 2.93205634 1.62195134 0 1 C0 0.67 0 0.34 0 0 Z " fill="#981525" transform="translate(260,1)"/>
<path d="M0 0 C0.66 0 1.32 0 2 0 C1.37954537 4.23322844 -0.10523559 7.52290295 -2.0625 11.3125 C-2.61035156 12.38113281 -3.15820312 13.44976562 -3.72265625 14.55078125 C-4.14417969 15.35902344 -4.56570313 16.16726563 -5 17 C-5.66 15.68 -6.32 14.36 -7 13 C-6.34 13 -5.68 13 -5 13 C-5 11.68 -5 10.36 -5 9 C-4.34 9 -3.68 9 -3 9 C-2.87625 8.071875 -2.7525 7.14375 -2.625 6.1875 C-2 3 -2 3 0 0 Z " fill="#C5C5C5" transform="translate(477,351)"/>
<path d="M0 0 C0.66 0 1.32 0 2 0 C1.25339288 5.72398793 0.17122859 11.34853777 -1 17 C-3.97 17 -6.94 17 -10 17 C-10 16.67 -10 16.34 -10 16 C-7.69 16 -5.38 16 -3 16 C-2.95101562 15.18015625 -2.90203125 14.3603125 -2.8515625 13.515625 C-2.77679688 12.43796875 -2.70203125 11.3603125 -2.625 10.25 C-2.55539063 9.18265625 -2.48578125 8.1153125 -2.4140625 7.015625 C-2.0271777 4.19793568 -1.44313834 2.4169634 0 0 Z " fill="#942535" transform="translate(140,216)"/>
<path d="M0 0 C0.78375 0.04125 1.5675 0.0825 2.375 0.125 C0.395 1.115 0.395 1.115 -1.625 2.125 C-1.625 2.785 -1.625 3.445 -1.625 4.125 C-2.945 4.455 -4.265 4.785 -5.625 5.125 C-5.625 5.785 -5.625 6.445 -5.625 7.125 C-6.553125 7.24875 -6.553125 7.24875 -7.5 7.375 C-9.80937567 7.93758459 -9.80937567 7.93758459 -10.875 10.1875 C-11.1225 10.826875 -11.37 11.46625 -11.625 12.125 C-12.285 12.125 -12.945 12.125 -13.625 12.125 C-12.50048273 9.1530615 -11.40206209 6.79059313 -9.625 4.125 C-7.97295544 3.42288106 -6.30576231 2.75528587 -4.625 2.125 C-2.625 0.125 -2.625 0.125 0 0 Z " fill="#A02931" transform="translate(189.625,151.875)"/>
<path d="M0 0 C2.64 0 5.28 0 8 0 C6.56684975 3.61773603 4.95412036 4.969107 1.5625 6.8125 C0.78003906 7.25207031 -0.00242187 7.69164062 -0.80859375 8.14453125 C-3 9 -3 9 -6 8 C-4.4375 6.79557292 -2.875 5.59114583 -1.3125 4.38671875 C0.34370205 2.95508863 0.34370205 2.95508863 0 0 Z " fill="#C6C6C6" transform="translate(376,460)"/>
<path d="M0 0 C0.33 0 0.66 0 1 0 C1.38445177 6.27937897 0.7194917 10.34345727 -2 16 C-2.69140522 18.77888613 -2.69140522 18.77888613 -3 21 C-3.66 21 -4.32 21 -5 21 C-4.42351925 13.64987044 -2.28953836 6.98575424 0 0 Z " fill="#9E3E4D" transform="translate(12,170)"/>
<path d="M0 0 C1.32 0.33 2.64 0.66 4 1 C3.34 2.32 2.68 3.64 2 5 C1.34 5 0.68 5 0 5 C0 5.66 0 6.32 0 7 C-1.53125 8.5078125 -1.53125 8.5078125 -3.5 10.125 C-4.1496875 10.66382812 -4.799375 11.20265625 -5.46875 11.7578125 C-5.9740625 12.16773437 -6.479375 12.57765625 -7 13 C-7 9.16235973 -5.73464665 7.88513915 -3.5 4.8125 C-2.8503125 3.91144531 -2.200625 3.01039062 -1.53125 2.08203125 C-1.0259375 1.39496094 -0.520625 0.70789063 0 0 Z " fill="#B3515C" transform="translate(47,102)"/>
<path d="M0 0 C4.35970831 1.34849837 8.31341438 3.04907846 12.375 5.125 C13.43460937 5.66382813 14.49421875 6.20265625 15.5859375 6.7578125 C16.38257813 7.16773438 17.17921875 7.57765625 18 8 C15 10 15 10 12.8125 9.625 C12.214375 9.41875 11.61625 9.2125 11 9 C11 8.34 11 7.68 11 7 C9.68 6.67 8.36 6.34 7 6 C7 5.34 7 4.68 7 4 C6.67 4.33 6.34 4.66 6 5 C4.67405895 5.36162029 3.34061543 5.69728039 2 6 C2.33 4.68 2.66 3.36 3 2 C2.01 2 1.02 2 0 2 C0 1.34 0 0.68 0 0 Z " fill="#AF4D5B" transform="translate(354,22)"/>
<path d="M0 0 C1.32 0 2.64 0 4 0 C4 2.97 4 5.94 4 9 C3.34 9 2.68 9 2 9 C1.67 11.31 1.34 13.62 1 16 C0.67 16 0.34 16 0 16 C0 10.72 0 5.44 0 0 Z " fill="#CBC8CA" transform="translate(496,267)"/>
<path d="M0 0 C5.45156722 3.27094033 9.61869443 7.41853326 14 12 C13.01 12.33 12.02 12.66 11 13 C10.01 12.34 9.02 11.68 8 11 C8 10.34 8 9.68 8 9 C7.34 9 6.68 9 6 9 C5.67 9.66 5.34 10.32 5 11 C5 9.68 5 8.36 5 7 C4.67 6.34 4.34 5.68 4 5 C3.01 4.67 2.02 4.34 1 4 C0.3125 1.9375 0.3125 1.9375 0 0 Z " fill="#BD5461" transform="translate(412,59)"/>
<path d="M0 0 C0.66 0.33 1.32 0.66 2 1 C-1.78717938 4.3363247 -5.22500698 7.17127927 -10 9 C-12.875 8.6875 -12.875 8.6875 -15 8 C-11.96943208 5.55831021 -8.90981404 3.86972611 -5.375 2.25 C-4.41335937 1.80140625 -3.45171875 1.3528125 -2.4609375 0.890625 C-1.64882812 0.59671875 -0.83671875 0.3028125 0 0 Z " fill="#AD4B5A" transform="translate(153,18)"/>
<path d="M0 0 C0 0.66 0 1.32 0 2 C-1.87256417 2.50904657 -3.74819341 3.00682455 -5.625 3.5 C-6.66914063 3.7784375 -7.71328125 4.056875 -8.7890625 4.34375 C-11.95687418 4.99118596 -14.77741467 5.1161292 -18 5 C-18 4.34 -18 3.68 -18 3 C-12.28801021 0.23613397 -6.25183674 0 0 0 Z " fill="#4B1518" transform="translate(232,139)"/>
<path d="M0 0 C-0.78125 2.97851562 -0.78125 2.97851562 -1.5625 5.95703125 C-2.1047007 8.14070009 -2.1047007 8.14070009 -2 11 C-5 9 -5 9 -5.6875 6.875 C-5.790625 6.25625 -5.89375 5.6375 -6 5 C-6.33 5.66 -6.66 6.32 -7 7 C-7.66 7 -8.32 7 -9 7 C-6.79922603 2.09058114 -5.62803596 0 0 0 Z " fill="#B33642" transform="translate(65,85)"/>
<path d="M0 0 C0 1.32 0 2.64 0 4 C-3.46444197 5.85595105 -6.2873953 7.33300647 -10.25 6.5625 C-10.8275 6.376875 -11.405 6.19125 -12 6 C-5.23076923 0 -5.23076923 0 0 0 Z " fill="#9C1726" transform="translate(161,17)"/>
<path d="M0 0 C3.3125 0.125 3.3125 0.125 7 1 C8.9375 4.0625 8.9375 4.0625 10 7 C7.625 7.625 7.625 7.625 5 8 C4.34 7.34 3.68 6.68 3 6 C3 5.34 3 4.68 3 4 C2.03886134 2.63838689 1.04115841 1.30144802 0 0 Z " fill="#DEE0DF" transform="translate(96,444)"/>
<path d="M0 0 C0.99 0.99 1.98 1.98 3 3 C0.3144406 5.6855594 -2.37621328 6.06049974 -6 7 C-4.77065985 3.31197956 -3.06140622 2.27643027 0 0 Z M-7 7 C-7 7.99 -7 8.98 -7 10 C-7.99 10 -8.98 10 -10 10 C-10 10.66 -10 11.32 -10 12 C-10.66 12 -11.32 12 -12 12 C-12 10.68 -12 9.36 -12 8 C-10.35 7.67 -8.7 7.34 -7 7 Z " fill="#E4E5E5" transform="translate(416,432)"/>
<path d="M0 0 C4.51496743 3.65497363 6.1570871 9.43677487 7 15 C5.109375 14.80078125 5.109375 14.80078125 3 14 C1.953125 11.85546875 1.953125 11.85546875 1.25 9.1875 C1.00765625 8.31480469 0.7653125 7.44210938 0.515625 6.54296875 C0 4 0 4 0 0 Z " fill="#50161C" transform="translate(350,199)"/>
<path d="M0 0 C0.66 0.99 1.32 1.98 2 3 C2.66 2.67 3.32 2.34 4 2 C4.8125 4.1875 4.8125 4.1875 5 7 C2.5625 9.8125 2.5625 9.8125 0 12 C-0.76173392 7.6835078 -1.16063604 4.25566547 0 0 Z " fill="#9B2735" transform="translate(6,191)"/>
<path d="M0 0 C0.66 0.33 1.32 0.66 2 1 C1.55269531 1.37511719 1.10539062 1.75023437 0.64453125 2.13671875 C-5.11899842 7.01544216 -10.23417032 12.14483782 -15 18 C-15 12.50089132 -9.68936771 8.76735434 -6 5 C-4.05347234 3.22256464 -2.09090037 1.6083849 0 0 Z " fill="#B5B5B5" transform="translate(201,185)"/>
<path d="M0 0 C0.66 0.33 1.32 0.66 2 1 C2 1.99 2 2.98 2 4 C-0.1875 5.75 -0.1875 5.75 -3 7 C-5.8125 6.6875 -5.8125 6.6875 -8 6 C-8 5.34 -8 4.68 -8 4 C-6.71349294 3.30289269 -5.42059335 2.61757124 -4.125 1.9375 C-3.40570313 1.55464844 -2.68640625 1.17179687 -1.9453125 0.77734375 C-1.30335938 0.52082031 -0.66140625 0.26429687 0 0 Z " fill="#A83A49" transform="translate(136,26)"/>
<path d="M0 0 C6.18160604 0.53753096 11.326858 2.54582388 17 5 C13.15790627 6.46055379 10.60962522 5.49637507 6.8125 4.1875 C5.74644531 3.83042969 4.68039063 3.47335937 3.58203125 3.10546875 C1 2 1 2 0 0 Z " fill="#BFBFBF" transform="translate(171,486)"/>
<path d="M0 0 C6.31121503 1.0992895 12.06338584 2.58137942 18 5 C14.25 6.125 14.25 6.125 12 5 C11.67 5.66 11.34 6.32 11 7 C11 6.01 11 5.02 11 4 C9.88625 4.020625 8.7725 4.04125 7.625 4.0625 C4 4 4 4 2 3 C2 2.34 2 1.68 2 1 C1.34 0.67 0.68 0.34 0 0 Z " fill="#A44252" transform="translate(318,9)"/>
<path d="M0 0 C4.12751449 0.60698743 7.3321148 2.03810791 11 4 C11 4.66 11 5.32 11 6 C10.34 6 9.68 6 9 6 C8.67 6.66 8.34 7.32 8 8 C7.01 7.34 6.02 6.68 5 6 C5.66 5.67 6.32 5.34 7 5 C4.36 4.01 1.72 3.02 -1 2 C-0.67 1.34 -0.34 0.68 0 0 Z " fill="#D5D6D6" transform="translate(151,476)"/>
<path d="M0 0 C2.31 0 4.62 0 7 0 C7.33 1.32 7.66 2.64 8 4 C6.02 4.99 6.02 4.99 4 6 C4 5.34 4 4.68 4 4 C3.01 4.33 2.02 4.66 1 5 C0.67 3.35 0.34 1.7 0 0 Z " fill="#DBDDDC" transform="translate(380,456)"/>
<path d="M0 0 C0.33 0 0.66 0 1 0 C1 5.28 1 10.56 1 16 C1.66 16.33 2.32 16.66 3 17 C1.35 17.33 -0.3 17.66 -2 18 C-1.03644647 5.33029613 -1.03644647 5.33029613 0 0 Z " fill="#922F3E" transform="translate(4,200)"/>
<path d="M0 0 C3.99926986 2.97088618 6.92118304 6.12948725 10 10 C9.67 10.66 9.34 11.32 9 12 C6.5625 11.375 6.5625 11.375 4 10 C3.1875 6.875 3.1875 6.875 3 4 C2.01 3.67 1.02 3.34 0 3 C0 2.01 0 1.02 0 0 Z " fill="#BF5A67" transform="translate(433,79)"/>
<path d="M0 0 C-0.99 0 -1.98 0 -3 0 C-3.33 0.99 -3.66 1.98 -4 3 C-5.60226955 3.22245393 -7.20696767 3.42746669 -8.8125 3.625 C-9.70582031 3.74101562 -10.59914062 3.85703125 -11.51953125 3.9765625 C-14 4 -14 4 -17 2 C-14.91952703 1.4678559 -12.83547707 0.94968214 -10.75 0.4375 C-9.58984375 0.14746094 -8.4296875 -0.14257812 -7.234375 -0.44140625 C-4.27909017 -0.95179964 -2.75565899 -1.02996165 0 0 Z " fill="#983544" transform="translate(204,5)"/>
<path d="M0 0 C0.33 0.66 0.66 1.32 1 2 C2.32 2 3.64 2 5 2 C3.66666667 4.66666667 2.33333333 7.33333333 1 10 C0.34 10 -0.32 10 -1 10 C-1.125 3.375 -1.125 3.375 0 0 Z " fill="#961926" transform="translate(3,215)"/>
<path d="M0 0 C1.65 0.33 3.3 0.66 5 1 C1.67692308 5.8 1.67692308 5.8 -1.75 6.8125 C-2.4925 6.874375 -3.235 6.93625 -4 7 C-3.34 5.35 -2.68 3.7 -2 2 C-1.34 2 -0.68 2 0 2 C0 1.34 0 0.68 0 0 Z " fill="#E0E0E0" transform="translate(435,413)"/>
<path d="M0 0 C5.41390868 0.46671627 9.20517932 1.24297811 14 4 C14 4.66 14 5.32 14 6 C8.93001981 5.34580901 4.58009223 3.1453591 0 1 C0 0.67 0 0.34 0 0 Z " fill="#8B232E" transform="translate(294,146)"/>
<path d="M0 0 C-0.5625 1.9375 -0.5625 1.9375 -2 4 C-5.625 4.75 -5.625 4.75 -9 5 C-8.34 4.34 -7.68 3.68 -7 3 C-5.68 3 -4.36 3 -3 3 C-3 2.34 -3 1.68 -3 1 C-7.95 2.485 -7.95 2.485 -13 4 C-13 3.34 -13 2.68 -13 2 C-8.49646738 0.24252386 -4.82360189 -0.19294408 0 0 Z " fill="#A33544" transform="translate(182,10)"/>
<path d="M0 0 C3.07780855 4.61671283 4.6061091 7.3870547 5 13 C4.015625 15.22265625 4.015625 15.22265625 3 17 C2.86722656 16.21753906 2.73445313 15.43507812 2.59765625 14.62890625 C2.42105469 13.61699219 2.24445313 12.60507813 2.0625 11.5625 C1.88847656 10.55316406 1.71445312 9.54382813 1.53515625 8.50390625 C1.25248903 6.0712562 1.25248903 6.0712562 0 5 C-0.04063832 3.33382885 -0.042721 1.66611905 0 0 Z " fill="#8F2531" transform="translate(358,215)"/>
<path d="M0 0 C2 2 2 2 2.4375 4.375 C2 7 2 7 -0.5 9.3125 C-1.7375 10.1478125 -1.7375 10.1478125 -3 11 C-3.33 10.34 -3.66 9.68 -4 9 C-3.22265625 6.8359375 -3.22265625 6.8359375 -2.0625 4.375 C-1.68222656 3.55773437 -1.30195313 2.74046875 -0.91015625 1.8984375 C-0.60980469 1.27195313 -0.30945313 0.64546875 0 0 Z " fill="#A84455" transform="translate(22,144)"/>
<path d="M0 0 C0.99 1.32 1.98 2.64 3 4 C2.01 5.485 2.01 5.485 1 7 C1 6.34 1 5.68 1 5 C0.34 5 -0.32 5 -1 5 C-1.103125 5.639375 -1.20625 6.27875 -1.3125 6.9375 C-1.539375 7.618125 -1.76625 8.29875 -2 9 C-2.99 9.33 -3.98 9.66 -5 10 C-5 9.34 -5 8.68 -5 8 C-4.34 8 -3.68 8 -3 8 C-3 6.68 -3 5.36 -3 4 C-2.34 4 -1.68 4 -1 4 C-0.67 2.68 -0.34 1.36 0 0 Z " fill="#D3D5D4" transform="translate(469,364)"/>
<path d="M0 0 C1.5 1.1875 1.5 1.1875 3 3 C3.1875 5.6875 3.1875 5.6875 3 8 C1.35 8.33 -0.3 8.66 -2 9 C-3 6 -3 6 -1.5625 2.8125 C-1.046875 1.884375 -0.53125 0.95625 0 0 Z " fill="#AA3643" transform="translate(26,136)"/>
<path d="M0 0 C0.99 0.66 1.98 1.32 3 2 C2.34 2 1.68 2 1 2 C0.87625 2.5775 0.7525 3.155 0.625 3.75 C-0.00648824 6.02335767 -0.88858191 7.9253529 -2 10 C-2.66 10 -3.32 10 -4 10 C-4 8.02 -4 6.04 -4 4 C-2.68 3.67 -1.36 3.34 0 3 C0 2.01 0 1.02 0 0 Z " fill="#A11E2F" transform="translate(37,119)"/>
<path d="M0 0 C6.50044763 0.61324978 6.50044763 0.61324978 8.9375 2.5 C10 4 10 4 10 5 C8.35 5 6.7 5 5 5 C5 4.34 5 3.68 5 3 C3.35 2.67 1.7 2.34 0 2 C0 1.34 0 0.68 0 0 Z " fill="#CCCBCB" transform="translate(183,488)"/>
<path d="M0 0 C4.455 0.99 4.455 0.99 9 2 C9 2.66 9 3.32 9 4 C9.99 4 10.98 4 12 4 C12 4.66 12 5.32 12 6 C7.87202695 5.39294514 4.62561178 4.06000669 1 2 C0.67 1.34 0.34 0.68 0 0 Z " fill="#C4C4C4" transform="translate(134,471)"/>
<path d="M0 0 C2 2 2 2 2 4 C3.32 4.66 4.64 5.32 6 6 C6 6.66 6 7.32 6 8 C5.34 8 4.68 8 4 8 C4 7.34 4 6.68 4 6 C3.21625 6.20625 2.4325 6.4125 1.625 6.625 C0.75875 6.74875 -0.1075 6.8725 -1 7 C-1.66 6.34 -2.32 5.68 -3 5 C-2.01 3.35 -1.02 1.7 0 0 Z " fill="#D9D9D9" transform="translate(118,456)"/>
<path d="M0 0 C0.66 0.33 1.32 0.66 2 1 C2 1.66 2 2.32 2 3 C2.66 3 3.32 3 4 3 C5.32 5.31 6.64 7.62 8 10 C4.18315774 8.44499019 1.80804268 5.96404505 -1 3 C-0.67 2.01 -0.34 1.02 0 0 Z " fill="#CCCCCC" transform="translate(67,418)"/>
<path d="M0 0 C4.875 4.75 4.875 4.75 6 7 C4.02 7.99 4.02 7.99 2 9 C0.50178941 5.62902617 0 3.79557881 0 0 Z " fill="#BA434F" transform="translate(443,91)"/>
<path d="M0 0 C0.99 0 1.98 0 3 0 C3 3.96 3 7.92 3 12 C0.97649676 8.96474514 0.67875982 7.80573798 0.375 4.3125 C0.30023437 3.50425781 0.22546875 2.69601562 0.1484375 1.86328125 C0.09945313 1.24839844 0.05046875 0.63351562 0 0 Z " fill="#BBBBBB" transform="translate(5,301)"/>
<path d="M0 0 C0.33 0 0.66 0 1 0 C1.39169887 2.66355234 1.40564529 4.39224373 -0.11328125 6.66796875 C-1.36389317 8.1510888 -2.67864514 9.57954352 -4 11 C-5 8 -5 8 -4.2578125 6.2109375 C-1.11111111 1.11111111 -1.11111111 1.11111111 0 0 Z " fill="#331414" transform="translate(165,176)"/>
<path d="M0 0 C1 2 1 2 0.8125 3.9375 C-0.25257252 6.64114562 -1.48443745 7.59424446 -4 9 C-4.99 8.67 -5.98 8.34 -7 8 C-4.69 5.36 -2.38 2.72 0 0 Z " fill="#9B1A2F" transform="translate(45,109)"/>
<path d="M0 0 C0.33 0.99 0.66 1.98 1 3 C0.34 3.66 -0.32 4.32 -1 5 C-1.6425235 7.06874034 -1.6425235 7.06874034 -2 9 C-3.65 9.33 -5.3 9.66 -7 10 C-2.85714286 2.42857143 -2.85714286 2.42857143 0 0 Z " fill="#B6576B" transform="translate(55,92)"/>
<path d="M0 0 C0.66 0.33 1.32 0.66 2 1 C2 1.99 2 2.98 2 4 C-2.455 5.485 -2.455 5.485 -7 7 C-4.66666667 4.66666667 -2.33333333 2.33333333 0 0 Z " fill="#BE5A6F" transform="translate(99,49)"/>
<path d="M0 0 C6.42857143 4.14285714 6.42857143 4.14285714 9 7 C8.01 7.33 7.02 7.66 6 8 C4.17578125 7.00390625 4.17578125 7.00390625 2.3125 5.5625 C1.68988281 5.08941406 1.06726563 4.61632813 0.42578125 4.12890625 C-0.04472656 3.75636719 -0.51523437 3.38382813 -1 3 C-0.67 2.01 -0.34 1.02 0 0 Z " fill="#BB4E5B" transform="translate(401,50)"/>
<path d="M0 0 C-0.54074373 3.78520613 -2.07572746 5.59177555 -5 8 C-5.99 8 -6.98 8 -8 8 C-8 7.34 -8 6.68 -8 6 C-6.68 5.34 -5.36 4.68 -4 4 C-4 3.01 -4 2.02 -4 1 C-2 0 -2 0 0 0 Z " fill="#A51D30" transform="translate(105,48)"/>
<path d="M0 0 C4.06815373 1.84916079 7.0094833 3.66442368 10 7 C6.06380262 6.43768609 3.20807554 5.38314183 0 3 C0 2.01 0 1.02 0 0 Z " fill="#4D151E" transform="translate(309,154)"/>
<path d="M0 0 C3.0916909 2.52956528 3.90931332 5.22454612 5 9 C4.01 9 3.02 9 2 9 C0.45220457 6.73783745 -0.77612283 4.44775434 -2 2 C-1.34 2 -0.68 2 0 2 C0 1.34 0 0.68 0 0 Z " fill="#BD5A6B" transform="translate(470,131)"/>
<path d="M0 0 C0.66 0.99 1.32 1.98 2 3 C0.60667426 6.36720387 -0.9789286 7.9859524 -4 10 C-4 8.02 -4 6.04 -4 4 C-3.01 4 -2.02 4 -1 4 C-0.67 2.68 -0.34 1.36 0 0 Z " fill="#A81F31" transform="translate(68,79)"/>
<path d="M0 0 C1.98 0.495 1.98 0.495 4 1 C2.35 2.65 0.7 4.3 -1 6 C-0.67 4.02 -0.34 2.04 0 0 Z M-3 5 C-2.34 5.66 -1.68 6.32 -1 7 C-1.99 7.66 -2.98 8.32 -4 9 C-3.67 7.68 -3.34 6.36 -3 5 Z " fill="#A01E29" transform="translate(81,65)"/>
<path d="M0 0 C0.99 0.33 1.98 0.66 3 1 C3.6875 3.0625 3.6875 3.0625 4 5 C4.639375 5.103125 5.27875 5.20625 5.9375 5.3125 C6.618125 5.539375 7.29875 5.76625 8 6 C8.33 6.99 8.66 7.98 9 9 C8.34 9 7.68 9 7 9 C7 8.34 7 7.68 7 7 C6.4225 6.9175 5.845 6.835 5.25 6.75 C2.3840696 5.79468987 1.0009236 4.21530827 -1 2 C-0.67 1.34 -0.34 0.68 0 0 Z " fill="#9F1825" transform="translate(409,58)"/>
<path d="M0 0 C1.65 0 3.3 0 5 0 C4.34 1.32 3.68 2.64 3 4 C0.03 3.67 -2.94 3.34 -6 3 C-5.67 2.34 -5.34 1.68 -5 1 C-3.35 1.33 -1.7 1.66 0 2 C0 1.34 0 0.68 0 0 Z " fill="#D0D2D1" transform="translate(326,484)"/>
<path d="M0 0 C1.53656962 2.4404341 2.02089707 3.70744102 1.8125 6.625 C1 9 1 9 -2 11 C-1 3.57142857 -1 3.57142857 0 0 Z " fill="#CECECE" transform="translate(361,269)"/>
<path d="M0 0 C3.11954738 0.33724836 4.6209965 0.6209965 6.875 2.875 C7.24625 3.57625 7.6175 4.2775 8 5 C7.67 5.99 7.34 6.98 7 8 C5.83035398 6.8572081 4.66435444 5.71068285 3.5 4.5625 C2.8503125 3.92441406 2.200625 3.28632813 1.53125 2.62890625 C0 1 0 1 0 0 Z " fill="#972533" transform="translate(328,168)"/>
<path d="M0 0 C0.33 1.32 0.66 2.64 1 4 C0.34 4 -0.32 4 -1 4 C-0.67 5.32 -0.34 6.64 0 8 C-0.99 8 -1.98 8 -3 8 C-3 8.99 -3 9.98 -3 11 C-3.66 11 -4.32 11 -5 11 C-3.77472971 6.94718288 -2.30119506 3.55639236 0 0 Z " fill="#BD6D77" transform="translate(32,125)"/>
<path d="M0 0 C1.46067199 0.45082469 2.91848032 0.91093537 4.375 1.375 C5.18710937 1.63023438 5.99921875 1.88546875 6.8359375 2.1484375 C9 3 9 3 11 5 C7.7 4.67 4.4 4.34 1 4 C0.67 2.68 0.34 1.36 0 0 Z " fill="#AF555F" transform="translate(343,17)"/>
<path d="M0 0 C1.41377341 2.63904371 2.37240135 5.07120629 3 8 C0.00675737 6.9024777 -0.84610901 6.32317108 -2.25 3.375 C-2.4975 2.59125 -2.745 1.8075 -3 1 C-2.01 0.67 -1.02 0.34 0 0 Z " fill="#CBCBCB" transform="translate(32,368)"/>
<path d="M0 0 C0 3.15084005 -0.45473667 4.33871316 -2 7 C-2.66 7.66 -3.32 8.32 -4 9 C-4.99 9 -5.98 9 -7 9 C-5.44499019 5.18315774 -2.96404505 2.80804268 0 0 Z " fill="#BE626C" transform="translate(69,76)"/>
<path d="M0 0 C2.64 0.66 5.28 1.32 8 2 C7.67 2.99 7.34 3.98 7 5 C4.625 5.125 4.625 5.125 2 5 C1.34 4.34 0.68 3.68 0 3 C0 2.01 0 1.02 0 0 Z " fill="#9C2732" transform="translate(389,44)"/>
<path d="M0 0 C-0.639375 0.103125 -1.27875 0.20625 -1.9375 0.3125 C-2.9584375 0.6528125 -2.9584375 0.6528125 -4 1 C-4.33 1.99 -4.66 2.98 -5 4 C-7.5625 5.1875 -7.5625 5.1875 -10 6 C-8.20404732 1.26521567 -5.07984355 -1.69328118 0 0 Z " fill="#9D1828" transform="translate(116,42)"/>
<path d="M0 0 C0 0.66 0 1.32 0 2 C-0.99 2.495 -0.99 2.495 -2 3 C-2.33 3.99 -2.66 4.98 -3 6 C-5.0625 6.6875 -5.0625 6.6875 -7 7 C-7.33 6.01 -7.66 5.02 -8 4 C-2.25 0 -2.25 0 0 0 Z " fill="#B65262" transform="translate(128,31)"/>
<path d="M0 0 C0.66 0.33 1.32 0.66 2 1 C0.68 1.99 -0.64 2.98 -2 4 C-1.67 4.66 -1.34 5.32 -1 6 C-2.32 6.33 -3.64 6.66 -5 7 C-5.33 6.01 -5.66 5.02 -6 4 C-5.34 4 -4.68 4 -4 4 C-3.67 3.01 -3.34 2.02 -3 1 C-2.01 0.67 -1.02 0.34 0 0 Z " fill="#D6D3D4" transform="translate(373,464)"/>
<path d="M0 0 C0.33 0.66 0.66 1.32 1 2 C2.89533342 2.46523063 2.89533342 2.46523063 5.0625 2.625 C6.361875 2.74875 7.66125 2.8725 9 3 C8.67 3.66 8.34 4.32 8 5 C4.9375 5.625 4.9375 5.625 2 6 C2 5.34 2 4.68 2 4 C1.34 3.67 0.68 3.34 0 3 C0 2.01 0 1.02 0 0 Z " fill="#311A1C" transform="translate(360,232)"/>
<path d="M0 0 C2 3 2 3 2 7 C0.68 7 -0.64 7 -2 7 C-2 5.35 -2 3.7 -2 2 C-1.34 2 -0.68 2 0 2 C0 1.34 0 0.68 0 0 Z " fill="#A53544" transform="translate(490,180)"/>
<path d="M0 0 C0.99 0.66 1.98 1.32 3 2 C3.1875 4.625 3.1875 4.625 3 7 C1.68 7 0.36 7 -1 7 C-1.33 6.34 -1.66 5.68 -2 5 C-1.0625 2.375 -1.0625 2.375 0 0 Z " fill="#A51B2E" transform="translate(19,157)"/>
<path d="M0 0 C2.475 0.99 2.475 0.99 5 2 C5 3.65 5 5.3 5 7 C4.01 7 3.02 7 2 7 C1.67 6.01 1.34 5.02 1 4 C1.33 3.67 1.66 3.34 2 3 C1.01 2.34 0.02 1.68 -1 1 C-0.67 0.67 -0.34 0.34 0 0 Z " fill="#AD3F44" transform="translate(372,31)"/>
<path d="M0 0 C3 1 3 1 5 3 C5.99 3.33 6.98 3.66 8 4 C7.67 4.99 7.34 5.98 7 7 C4.525 6.01 4.525 6.01 2 5 C2 4.01 2 3.02 2 2 C1.34 2 0.68 2 0 2 C0 1.34 0 0.68 0 0 Z " fill="#951827" transform="translate(358,25)"/>
<path d="M0 0 C1.13643966 3.40931897 0.86747764 4.00335456 -0.4375 7.1875 C-0.86869141 8.26064453 -0.86869141 8.26064453 -1.30859375 9.35546875 C-1.53675781 9.89816406 -1.76492188 10.44085938 -2 11 C-2.33 11 -2.66 11 -3 11 C-3 8.69 -3 6.38 -3 4 C-2.34 4 -1.68 4 -1 4 C-0.67 2.68 -0.34 1.36 0 0 Z " fill="#BEBEBE" transform="translate(487,328)"/>
<path d="M0 0 C0.66 0.33 1.32 0.66 2 1 C1.01 2.98 0.02 4.96 -1 7 C-1.66 6.34 -2.32 5.68 -3 5 C-5.06874034 4.3574765 -5.06874034 4.3574765 -7 4 C-1.7265625 0.77734375 -1.7265625 0.77734375 0 0 Z " fill="#565656" transform="translate(293,317)"/>
<path d="M0 0 C0.33 0 0.66 0 1 0 C1.33 2.97 1.66 5.94 2 9 C1.34 9 0.68 9 0 9 C-0.33 9.99 -0.66 10.98 -1 12 C-1.08159574 7.83861737 -0.98248524 4.0527516 0 0 Z " fill="#9F2D3E" transform="translate(495,201)"/>
<path d="M0 0 C4.31392226 0.4793247 6.16569547 1.7457985 9 5 C4.68607774 4.5206753 2.83430453 3.2542015 0 0 Z " fill="#A52537" transform="translate(308,152)"/>
<path d="M0 0 C-2.42755736 2.42755736 -4.89189508 3.57545191 -8 5 C-8.66 5 -9.32 5 -10 5 C-10 4.34 -10 3.68 -10 3 C-6.81719857 -0.18280143 -4.38555569 -0.29901516 0 0 Z " fill="#A02839" transform="translate(202,147)"/>
<path d="M0 0 C0.53625 0.226875 1.0725 0.45375 1.625 0.6875 C-1.57836822 3.52124881 -4.15587253 4.2080537 -8.375 4.6875 C-8.375 4.0275 -8.375 3.3675 -8.375 2.6875 C-2.95961538 -0.38942308 -2.95961538 -0.38942308 0 0 Z " fill="#3B1614" transform="translate(212.375,144.3125)"/>
<path d="M0 0 C2.97 0.495 2.97 0.495 6 1 C6 1.66 6 2.32 6 3 C6.99 3 7.98 3 9 3 C8.67 3.66 8.34 4.32 8 5 C5.36 4.01 2.72 3.02 0 2 C0 1.34 0 0.68 0 0 Z " fill="#931D2C" transform="translate(348,21)"/>
<path d="M0 0 C2.64 0 5.28 0 8 0 C7.34 1.32 6.68 2.64 6 4 C4.02 3.34 2.04 2.68 0 2 C0 1.34 0 0.68 0 0 Z " fill="#CFD1D0" transform="translate(376,460)"/>
<path d="M0 0 C1.37562854 1.28965176 2.70766393 2.62689293 4 4 C4 4.66 4 5.32 4 6 C2.35 5.67 0.7 5.34 -1 5 C-1.33 3.68 -1.66 2.36 -2 1 C-1.34 0.67 -0.68 0.34 0 0 Z " fill="#DDDDDD" transform="translate(75,424)"/>
<path d="M0 0 C0.66 0.33 1.32 0.66 2 1 C2 1.99 2 2.98 2 4 C0.02253397 4.73080266 -1.98072489 5.39421747 -4 6 C-4.66 5.67 -5.32 5.34 -6 5 C-4.02 3.35 -2.04 1.7 0 0 Z " fill="#C6C6C6" transform="translate(322,336)"/>
<path d="M0 0 C0.33 0.66 0.66 1.32 1 2 C-1.47812494 5.45167403 -2.79606135 7.23163306 -7 8 C-6.02133662 6.85373678 -5.04205413 5.70800212 -4.0625 4.5625 C-3.51722656 3.92441406 -2.97195313 3.28632813 -2.41015625 2.62890625 C-1.63204305 1.73008851 -0.84063472 0.84063472 0 0 Z " fill="#4D4E4E" transform="translate(309,304)"/>
<path d="M0 0 C1.32 0.33 2.64 0.66 4 1 C3.67 2.65 3.34 4.3 3 6 C2.01 6 1.02 6 0 6 C0 4.02 0 2.04 0 0 Z " fill="#CCC9CC" transform="translate(1,267)"/>
<path d="M0 0 C0.33 0.99 0.66 1.98 1 3 C0.01 3.99 -0.98 4.98 -2 6 C-1.125 1.125 -1.125 1.125 0 0 Z M-5 5 C-4.01 5.66 -3.02 6.32 -2 7 C-3.65 7.66 -5.3 8.32 -7 9 C-7 8.34 -7 7.68 -7 7 C-6.34 7 -5.68 7 -5 7 C-5 6.34 -5 5.68 -5 5 Z " fill="#9B1E2F" transform="translate(55,95)"/>
<path d="M0 0 C-1.32 0.33 -2.64 0.66 -4 1 C-4 1.66 -4 2.32 -4 3 C-6.31 2.67 -8.62 2.34 -11 2 C-11 1.67 -11 1.34 -11 1 C-3.57142857 -1.42857143 -3.57142857 -1.42857143 0 0 Z " fill="#CDCFCE" transform="translate(303,493)"/>
<path d="M0 0 C1.65 1.65 3.3 3.3 5 5 C1.7 4.34 -1.6 3.68 -5 3 C-5 2.67 -5 2.34 -5 2 C-3.35 2 -1.7 2 0 2 C0 1.34 0 0.68 0 0 Z " fill="#D3D3D3" transform="translate(136,468)"/>
<path d="M0 0 C0.33 0.66 0.66 1.32 1 2 C1.66 2.33 2.32 2.66 3 3 C2.01 3.66 1.02 4.32 0 5 C-0.99 4.67 -1.98 4.34 -3 4 C-3 4.99 -3 5.98 -3 7 C-3.66 7 -4.32 7 -5 7 C-4.6875 5.0625 -4.6875 5.0625 -4 3 C-3.01 2.67 -2.02 2.34 -1 2 C-0.67 1.34 -0.34 0.68 0 0 Z " fill="#D9DADA" transform="translate(449,397)"/>
<path d="M0 0 C0.66 0.99 1.32 1.98 2 3 C1.25 5.625 1.25 5.625 0 8 C-0.99 8.495 -0.99 8.495 -2 9 C-2 7.02 -2 5.04 -2 3 C-1.34 3 -0.68 3 0 3 C0 2.01 0 1.02 0 0 Z " fill="#951B27" transform="translate(15,165)"/>
<path d="M0 0 C2.97 1.65 5.94 3.3 9 5 C6 6 6 6 3.375 4.75 C1 3 1 3 0 0 Z " fill="#C2757E" transform="translate(387,40)"/>
<path d="M0 0 C0.33 1.32 0.66 2.64 1 4 C-1.375 5.5625 -1.375 5.5625 -4 7 C-4.66 6.67 -5.32 6.34 -6 6 C-4.02 4.02 -2.04 2.04 0 0 Z " fill="#CDCFCF" transform="translate(331,328)"/>
<path d="M0 0 C0.99 0.33 1.98 0.66 3 1 C1.6875 3 1.6875 3 0 5 C-0.99 5 -1.98 5 -3 5 C-1.125 1.125 -1.125 1.125 0 0 Z " fill="#3D1811" transform="translate(169,171)"/>
<path d="M0 0 C6.52307692 0.61538462 6.52307692 0.61538462 8.9375 2.5625 C9.288125 3.036875 9.63875 3.51125 10 4 C8.72125 3.71125 7.4425 3.4225 6.125 3.125 C5.40570313 2.96257812 4.68640625 2.80015625 3.9453125 2.6328125 C2 2 2 2 0 0 Z " fill="#A82636" transform="translate(290,143)"/>
</svg>
